<?xml version="1.0" encoding="UTF-8" standalone="no"?>
<!-- Created with Inkscape (http://www.inkscape.org/) -->

<svg
   width="11.31406mm"
   height="20.14455mm"
   viewBox="0 0 11.31406 20.14455"
   version="1.1"
   id="svg1"
   xml:space="preserve"
   inkscape:version="1.3.2 (091e20e, 2023-11-25, custom)"
   sodipodi:docname="r.svg"
   inkscape:export-filename="q.svg"
   inkscape:export-xdpi="96"
   inkscape:export-ydpi="96"
   xmlns:inkscape="http://www.inkscape.org/namespaces/inkscape"
   xmlns:sodipodi="http://sodipodi.sourceforge.net/DTD/sodipodi-0.dtd"
   xmlns="http://www.w3.org/2000/svg"
   xmlns:svg="http://www.w3.org/2000/svg"><sodipodi:namedview
     id="namedview1"
     pagecolor="#ffffff"
     bordercolor="#000000"
     borderopacity="0.25"
     inkscape:showpageshadow="2"
     inkscape:pageopacity="0.0"
     inkscape:pagecheckerboard="0"
     inkscape:deskcolor="#d1d1d1"
     inkscape:document-units="mm"
     inkscape:zoom="4"
     inkscape:cx="-52"
     inkscape:cy="34.625"
     inkscape:window-width="1920"
     inkscape:window-height="1011"
     inkscape:window-x="-8"
     inkscape:window-y="-8"
     inkscape:window-maximized="1"
     inkscape:current-layer="g279"
     showgrid="false" /><defs
     id="defs1" /><g
     inkscape:label="Layer 1"
     inkscape:groupmode="layer"
     id="layer1"><g
       style="fill:#ff0000;stroke:#ffffff;stroke-width:0.25"
       id="g279"
       transform="matrix(1.1038108,0,0,1.1038108,-0.96583442,-0.96583442)"><path
         d="M 10,2 9,0.99999997 H 3 L 2,2 3,3 h 6 z m 0,0 -1,1 v 5.9999997 l 1,1 1,-1 V 3 Z M 10,18 9,17 V 11 L 10,9.9999997 11,11 v 6 z m 0,0 -1,-1 H 3 l -1,1 1,1 H 9 Z M 2,9.9999997 0.99999997,11 v 6 L 2,18 3,17 v -6 z m 0,0 -1.00000003,-1 V 3 L 2,2 3,3 v 5.9999997 z m 0,0 L 3,11 h 6 l 1,-1.0000003 -1,-1 H 3 Z"
         fill="#dddddd"
         id="use468" /><path
         d="M 2,9.9999997 0.99999997,11 v 6 L 2,18 3,17 v -6 z"
         id="path540" /><path
         d="m 3.0001,8.9997797 -0.99999,1 0.99999,1.0000003 h 5.99999 l 1,-1.0000003 -1,-1 z"
         id="path532" /></g></g></svg>
