<?xml version="1.0" encoding="UTF-8" standalone="no"?>
<!DOCTYPE svg PUBLIC "-//W3C//DTD SVG 1.1//EN" "http://www.w3.org/Graphics/SVG/1.1/DTD/svg11.dtd">
<svg xmlns="http://www.w3.org/2000/svg" width="192px" height="320px" viewBox="-1 -1 12 20">
<g id="acdfg" style="fill-rule:evenodd; stroke:#FFFFFF; stroke-width:0.25; stroke-opacity:1; stroke-linecap:butt; stroke-linejoin:miter;">
	<polygon id="a" points=" 1, 1  2, 0  8, 0  9, 1  8, 2  2, 2" fill="#FF0000"/>
	<polygon id="b" points=" 9, 1 10, 2 10, 8  9, 9  8, 8  8, 2" fill="#DDDDDD"/>
	<polygon id="c" points=" 9, 9 10,10 10,16  9,17  8,16  8,10" fill="#FF0000"/>
	<polygon id="d" points=" 9,17  8,18  2,18  1,17  2,16  8,16" fill="#FF0000"/>
	<polygon id="e" points=" 1,17  0,16  0,10  1, 9  2,10  2,16" fill="#DDDDDD"/>
	<polygon id="f" points=" 1, 9  0, 8  0, 2  1, 1  2, 2  2, 8" fill="#FF0000"/>
	<polygon id="g" points=" 1, 9  2, 8  8, 8  9, 9  8,10  2,10" fill="#FF0000"/>
</g>
</svg>