<?xml version="1.0" encoding="UTF-8"?><svg id="Layer_1" xmlns="http://www.w3.org/2000/svg" xmlns:xlink="http://www.w3.org/1999/xlink" viewBox="0 0 350 97.77"><defs><style>.cls-1{fill:url(#linear-gradient);}.cls-2{fill:#fff;}.cls-3{fill:#7a0068;opacity:.22;}.cls-4{fill:url(#linear-gradient-8);}.cls-5{fill:url(#linear-gradient-9);}.cls-6{fill:url(#linear-gradient-3);}.cls-7{fill:url(#linear-gradient-4);}.cls-8{fill:url(#linear-gradient-2);}.cls-9{fill:url(#linear-gradient-6);}.cls-10{fill:url(#linear-gradient-7);}.cls-11{fill:url(#linear-gradient-5);}.cls-12{fill:url(#Degradado_sin_nombre_52);}.cls-13{fill:url(#Degradado_sin_nombre_66);}.cls-14{fill:url(#Degradado_sin_nombre_24);}.cls-15{fill:url(#Degradado_sin_nombre_15);}.cls-16{fill:url(#linear-gradient-14);}.cls-17{fill:url(#linear-gradient-18);}.cls-18{fill:url(#linear-gradient-22);}.cls-19{fill:url(#linear-gradient-20);}.cls-20{fill:url(#linear-gradient-21);}.cls-21{fill:url(#linear-gradient-23);}.cls-22{fill:url(#linear-gradient-15);}.cls-23{fill:url(#linear-gradient-19);}.cls-24{fill:url(#linear-gradient-16);}.cls-25{fill:url(#linear-gradient-17);}.cls-26{fill:url(#linear-gradient-13);}.cls-27{fill:url(#linear-gradient-12);}.cls-28{fill:url(#linear-gradient-10);}.cls-29{fill:url(#linear-gradient-11);}.cls-30{fill:url(#linear-gradient-27);}.cls-31{fill:url(#linear-gradient-24);}.cls-32{fill:url(#linear-gradient-26);}.cls-33{fill:url(#linear-gradient-25);}.cls-34{fill:url(#linear-gradient-28);}.cls-35{fill:url(#Degradado_sin_nombre_52-2);}.cls-36{fill:url(#Degradado_sin_nombre_52-3);}.cls-37{fill:url(#Degradado_sin_nombre_24-2);}</style><linearGradient id="linear-gradient" x1="225.52" y1="66.25" x2="215.52" y2="18.35" gradientUnits="userSpaceOnUse"><stop offset="0" stop-color="#d12060"/><stop offset=".15" stop-color="#db2351"/><stop offset=".49" stop-color="#ee2b34"/><stop offset=".78" stop-color="#fa3023"/><stop offset="1" stop-color="#ff321d"/></linearGradient><linearGradient id="linear-gradient-2" x1="223.72" y1="55.19" x2="218.58" y2="33.11" gradientUnits="userSpaceOnUse"><stop offset=".06" stop-color="#ff321d"/><stop offset=".29" stop-color="#ec2c29"/><stop offset=".75" stop-color="#bb1f49"/><stop offset=".9" stop-color="#aa1a55"/></linearGradient><linearGradient id="linear-gradient-3" x1="237.69" y1="50.37" x2="195.99" y2="103.63" gradientUnits="userSpaceOnUse"><stop offset="0" stop-color="#1745a1"/><stop offset=".79" stop-color="#011474"/></linearGradient><linearGradient id="linear-gradient-4" x1="208.45" y1="23.34" x2="255.92" y2="70.81" gradientUnits="userSpaceOnUse"><stop offset="0" stop-color="#d12060"/><stop offset=".07" stop-color="#864d9a"/><stop offset=".15" stop-color="#3182dc"/><stop offset=".25" stop-color="#286ec9"/><stop offset=".48" stop-color="#1646a3"/><stop offset=".69" stop-color="#0a2988"/><stop offset=".87" stop-color="#021877"/><stop offset="1" stop-color="#001272"/></linearGradient><linearGradient id="Degradado_sin_nombre_52" x1="225.24" y1="34.56" x2="216.78" y2="3.47" gradientUnits="userSpaceOnUse"><stop offset="0" stop-color="#002d68"/><stop offset=".95" stop-color="#001f4a"/></linearGradient><linearGradient id="linear-gradient-5" x1="222.94" y1="9.66" x2="222.94" y2="34.82" xlink:href="#linear-gradient"/><linearGradient id="linear-gradient-6" x1="243.71" y1="12.31" x2="246.67" y2="25.71" gradientUnits="userSpaceOnUse"><stop offset="0" stop-color="#ff2966"/><stop offset=".05" stop-color="#ff2f63"/><stop offset=".29" stop-color="#ff4d5a"/><stop offset=".54" stop-color="#ff6254"/><stop offset=".77" stop-color="#ff6f50"/><stop offset="1" stop-color="#ff744f"/></linearGradient><linearGradient id="linear-gradient-7" x1="229.61" y1="37.56" x2="229.22" y2="16.48" xlink:href="#linear-gradient-6"/><linearGradient id="linear-gradient-8" x1="237.87" y1="25.49" x2="233.11" y2="19.52" xlink:href="#linear-gradient"/><linearGradient id="Degradado_sin_nombre_15" x1="234.9" y1="19.84" x2="234.9" y2="23.6" gradientUnits="userSpaceOnUse"><stop offset="0" stop-color="#ff4b2a"/><stop offset=".46" stop-color="#ffa111"/><stop offset=".79" stop-color="#fd0"/></linearGradient><linearGradient id="Degradado_sin_nombre_66" x1="89.76" y1="835.11" x2="89.76" y2="839.45" gradientTransform="translate(-398.08 -232.59) rotate(-59.29) scale(1.17 .8)" gradientUnits="userSpaceOnUse"><stop offset=".26" stop-color="#fff47b"/><stop offset=".35" stop-color="#fff272"/><stop offset=".5" stop-color="#ffed59"/><stop offset=".68" stop-color="#ffe632"/><stop offset=".87" stop-color="#fd0"/></linearGradient><linearGradient id="Degradado_sin_nombre_52-2" x1="242.99" y1="37.74" x2="236.48" y2="24.23" xlink:href="#Degradado_sin_nombre_52"/><linearGradient id="Degradado_sin_nombre_24" x1="244.76" y1="25.32" x2="244.76" y2="28.74" gradientUnits="userSpaceOnUse"><stop offset="0" stop-color="#a2fff9"/><stop offset=".4" stop-color="#a0fdf8"/><stop offset=".54" stop-color="#9af6f5"/><stop offset=".65" stop-color="#8feaef"/><stop offset=".73" stop-color="#80d9e8"/><stop offset=".8" stop-color="#6cc3de"/><stop offset=".86" stop-color="#54a8d2"/><stop offset=".92" stop-color="#3688c4"/><stop offset=".97" stop-color="#1663b4"/><stop offset="1" stop-color="#004ba9"/></linearGradient><linearGradient id="Degradado_sin_nombre_24-2" x1="240.27" y1="25.94" x2="240.27" y2="29.4" xlink:href="#Degradado_sin_nombre_24"/><linearGradient id="linear-gradient-9" x1="240.45" y1="33.54" x2="255.63" y2="33.54" xlink:href="#linear-gradient-3"/><linearGradient id="linear-gradient-10" x1="181.08" y1="76.15" x2="240.53" y2="76.15" xlink:href="#linear-gradient-3"/><linearGradient id="Degradado_sin_nombre_52-3" x1="218.2" y1="66.1" x2="227.82" y2="66.1" xlink:href="#Degradado_sin_nombre_52"/><linearGradient id="linear-gradient-11" x1="182.65" y1="70.16" x2="216.69" y2="70.16" xlink:href="#linear-gradient-3"/><linearGradient id="linear-gradient-12" x1="240.47" y1="73.98" x2="273.64" y2="75.53" xlink:href="#linear-gradient-3"/><linearGradient id="linear-gradient-13" x1="175.84" y1="57" x2="238.21" y2="78.86" xlink:href="#linear-gradient"/><linearGradient id="linear-gradient-14" x1="256.69" y1="78.89" x2="253.51" y2="63.7" xlink:href="#linear-gradient"/><linearGradient id="linear-gradient-15" x1="204.37" y1="14.71" x2="234.84" y2="14.71" gradientUnits="userSpaceOnUse"><stop offset="0" stop-color="#ff5037"/><stop offset="1" stop-color="#ffb931"/></linearGradient><linearGradient id="linear-gradient-16" x1="19.04" y1="82.49" x2="229.63" y2="19.07" xlink:href="#linear-gradient-4"/><linearGradient id="linear-gradient-17" x1="277.02" y1="72.39" x2="338.08" y2="67.92" xlink:href="#linear-gradient-2"/><linearGradient id="linear-gradient-18" x1="277.06" y1="72.89" x2="338.12" y2="68.41" xlink:href="#linear-gradient-2"/><linearGradient id="linear-gradient-19" x1="277.09" y1="73.4" x2="338.15" y2="68.92" xlink:href="#linear-gradient-2"/><linearGradient id="linear-gradient-20" x1="277.13" y1="73.91" x2="338.19" y2="69.44" xlink:href="#linear-gradient-2"/><linearGradient id="linear-gradient-21" x1="277.17" y1="74.46" x2="338.23" y2="69.99" xlink:href="#linear-gradient-2"/><linearGradient id="linear-gradient-22" x1="277.29" y1="76.08" x2="338.35" y2="71.6" xlink:href="#linear-gradient-2"/><linearGradient id="linear-gradient-23" x1="277.32" y1="76.51" x2="338.38" y2="72.04" xlink:href="#linear-gradient-2"/><linearGradient id="linear-gradient-24" x1="250.64" y1="56.62" x2="317.54" y2="54.8" xlink:href="#linear-gradient-4"/><linearGradient id="linear-gradient-25" x1="250.65" y1="57.11" x2="317.55" y2="55.29" xlink:href="#linear-gradient-4"/><linearGradient id="linear-gradient-26" x1="250.6" y1="55.14" x2="317.5" y2="53.32" xlink:href="#linear-gradient-4"/><linearGradient id="linear-gradient-27" x1="250.68" y1="58.04" x2="317.58" y2="56.22" gradientUnits="userSpaceOnUse"><stop offset=".15" stop-color="#3182dc"/><stop offset=".16" stop-color="#4177cf"/><stop offset=".22" stop-color="#7458a7"/><stop offset=".28" stop-color="#9c4088"/><stop offset=".32" stop-color="#b92e72"/><stop offset=".37" stop-color="#ca2364"/><stop offset=".4" stop-color="#d12060"/><stop offset=".75" stop-color="#56176a"/><stop offset="1" stop-color="#001272"/></linearGradient><linearGradient id="linear-gradient-28" x1="250.7" y1="58.64" x2="317.59" y2="56.82" xlink:href="#linear-gradient-4"/></defs><g><g><path class="cls-1" d="M198.6,22.14c-14.35,15.9,27.72,24.23,29.22,40.7l9.61,.14s9.59-16.95,2.08-31.7c-8.92-17.52-30.35-18.1-40.91-9.13Z"/><path class="cls-8" d="M228.96,61.54c-1.42-7.24-9.62-12.74-17.56-18.06-7.11-4.76-13.82-9.26-14.42-14.14-.25-2.02,.58-4.07,2.54-6.26,4.03-3.39,9.77-5.34,15.75-5.34,9.95,0,18.57,5.28,23.07,14.12,6.27,12.32-.08,26.54-1.7,29.78l-7.68-.11Z"/><path class="cls-6" d="M271.45,69.74c-.04-.69-.14-1.36-.3-2.01-.16-.65-.39-1.27-.66-1.86-1.12-2.36-2.9-4.15-4.84-5.53,.73,.95,1.39,1.94,1.91,2.97,.54,1.02,.91,2.1,1.12,3.17,.1,.53,.16,1.07,.17,1.59,0,.52-.04,1.04-.13,1.53-.09,.5-.24,.97-.43,1.43-.18,.45-.41,.88-.68,1.29-1.06,1.62-2.71,2.76-4.53,3.43-.91,.33-1.87,.55-2.83,.67-.97,.12-1.95,.11-2.93,.03-.98-.09-1.95-.28-2.9-.55-.95-.26-1.88-.61-2.78-1.03-1.8-.85-3.51-1.95-5.07-3.26l-1.33-1.14c-.26-.22-.52-.44-.79-.64-.27-.21-.53-.42-.81-.62-1.06-.78-2.16-1.49-3.27-2.16,.1-.76,.17-1.52,.2-2.26,.13-3.15-.31-6.12-1-8.88-.7-2.76-1.68-5.35-2.83-7.78-1.14-2.44-2.44-4.74-3.85-6.94-.7-1.1-1.44-2.17-2.19-3.22-.38-.53-.76-1.04-1.15-1.56-.19-.26-.39-.51-.59-.76l-.57-.73c-1.36-1.72-2.63-3.47-3.72-5.2-.54-.86-1.03-1.72-1.44-2.55,0,0,0-.02-.01-.02-.64-1.29,.37-2.78,1.81-2.7,1.64,.09,3.57,.26,4.65,.49l2.72-11.82c-2.59-.61-5.28-1.11-8.32-1.18-1.53-.03-3.15,.05-4.99,.46-.92,.21-1.89,.5-2.92,.98-1.02,.48-2.1,1.13-3.1,2.06-.99,.92-1.87,2.12-2.44,3.38-.58,1.26-.88,2.56-.98,3.71-.11,1.16-.06,2.21,.06,3.17,.12,.96,.32,1.83,.54,2.64,.46,1.61,1.04,3.02,1.66,4.32,.62,1.31,1.3,2.51,1.99,3.67,1.4,2.3,2.89,4.41,4.45,6.42l.52,.68c.16,.22,.33,.43,.49,.65,.32,.43,.64,.87,.95,1.31,.62,.88,1.23,1.76,1.79,2.66,2.27,3.58,4.08,7.38,5.03,11.04,.25,.96,.42,1.9,.53,2.81-.03,0-.06-.02-.09-.02-.62-.16-1.24-.32-1.87-.47-2.5-.56-5.01-1.01-7.53-1.29-5.04-.6-10.09-.67-15.1-.4-1.25,.07-2.51,.16-3.76,.27l-.94,.09-.47,.05-.52,.06c-.69,.08-1.39,.19-2.1,.31-1.41,.25-2.84,.6-4.3,1.08-1.47,.5-2.96,1.12-4.53,2.1-.78,.49-1.58,1.07-2.37,1.83-.79,.76-1.61,1.7-2.28,2.98-.67,1.27-1.18,2.93-1.13,4.68,0,.87,.16,1.72,.39,2.51,.12,.38,.25,.77,.41,1.12,.08,.17,.16,.35,.24,.52l.26,.48c.71,1.25,1.54,2.16,2.34,2.89,.8,.73,1.59,1.28,2.35,1.75,.76,.47,1.52,.86,2.24,1.19,.73,.34,1.45,.62,2.15,.87,2.82,.99,5.49,1.53,8.11,1.91,2.62,.38,5.19,.56,7.74,.66,.64,.02,1.27,.04,1.9,.05,.63,0,1.25,.02,1.92,0,1.31,0,2.64-.06,3.98-.16,2.68-.21,5.42-.6,8.2-1.38,2.78-.77,5.63-1.92,8.33-3.74,1.34-.91,2.63-1.99,3.8-3.24,.76-.83,1.47-1.73,2.09-2.69,.58,.26,1.16,.53,1.72,.82,.23,.12,.45,.24,.67,.36,.23,.12,.45,.25,.66,.38l.33,.2c.12,.07,.2,.11,.36,.22l.85,.56c2.29,1.43,4.78,2.63,7.43,3.39,1.32,.38,2.68,.67,4.06,.82,1.38,.15,2.78,.18,4.17,.07,2.78-.24,5.54-1.02,7.95-2.5,1.2-.73,2.31-1.64,3.25-2.7,.47-.53,.9-1.1,1.27-1.71,.37-.6,.69-1.25,.94-1.91,.52-1.32,.73-2.75,.67-4.12Zm-57.75,4.54c-1.02,.08-2.06,.14-3.12,.15-.52,.01-1.08,0-1.63,0-.55,0-1.1-.01-1.65-.03-2.19-.06-4.35-.21-6.42-.48-1.85-.24-3.65-.59-5.2-1.07,.58-.17,1.19-.32,1.82-.44,.46-.09,.93-.17,1.41-.23l.36-.05,.41-.05,.83-.1c1.11-.12,2.21-.22,3.32-.31,2.22-.17,4.44-.25,6.66-.25,2.22-.02,4.43,.05,6.62,.18,1.81,.13,3.62,.28,5.4,.51-.91,.45-1.94,.84-3.05,1.16-1.77,.51-3.74,.83-5.78,1Z"/><path class="cls-7" d="M227.52,35.25c-9.65-10.06-14.24-5.64-8.99,.33,5.25,5.97,15.86,13.56,21.07,26.07,0,0-.12-11.68-12.08-26.4Z"/><path class="cls-12" d="M223.24,26.98s0-.02-.01-.02c-.64-1.29,.67-2.71,2.1-2.63,1.64,.09,3.27,.19,4.35,.42l2.72-11.82c-2.59-.61-5.28-1.11-8.32-1.18-1.53-.03-3.15,.05-4.99,.46-.92,.21-1.89,.5-2.92,.98-1.02,.48-2.1,1.13-3.1,2.06-.99,.92-1.87,2.12-2.44,3.38-.58,1.26-.88,2.56-.98,3.71-.11,1.15-.06,2.2,.06,3.15,5.4-5.18,11.73,2.75,16.93,6.94-.7-.96-1.36-1.93-1.97-2.89-.54-.86-1.03-1.72-1.44-2.55Z"/><path class="cls-11" d="M198.6,22.14c15.74-17.21,37.37-12.69,47.38-1.57,1.12,1.24,1.64,2.43,1.08,4.01l-2.15,6.94c-.83,2.69-3.61,4.26-6.34,3.58-2.61-.65-5.91-2.19-9.17-5.68-7.05-7.55-20.66-12.21-30.8-7.28Z"/><path class="cls-3" d="M214.5,20.65s7.47-5.84,16.47-4.74c10.71,1.31,10.28,9.63,10.28,9.63l-26.75-4.89Z"/><path class="cls-9" d="M245.98,20.57c-.6-.66-1.23-1.3-1.91-1.91,4.42,4.5,1.39,7.01,1.39,7.01l1.22,.14,.38-1.23c.56-1.58,.04-2.76-1.08-4.01Z"/><path class="cls-10" d="M241.46,26.89c-1.31-12.45-17.76-9.57-27.74-6.13,6.09,1.32,11.85,4.56,15.68,8.66,3.26,3.49,6.56,5.03,9.17,5.68,2.73,.68,5.51-.89,6.34-3.58l.16-.51c-1.85-2.17-3.61-4.12-3.61-4.12Z"/><path class="cls-4" d="M235.87,24.32c-1.63,0-2.84-.81-3.92-2.63l-.99-1.85,.75-.24c.54-.17,1.1-.26,1.66-.26,2.35,0,4.42,1.51,5.14,3.75l.2,.62-.62,.2c-.85,.27-1.58,.41-2.22,.41h0Z"/><path class="cls-15" d="M231.92,20.23l.6,1.13c1.37,2.32,2.88,2.74,5.37,1.93-.8-2.5-3.48-3.87-5.98-3.07Z"/><path class="cls-13" d="M235.44,20.62c.64,.38,1.02,.94,.83,1.25-.18,.31-.85,.25-1.5-.13-.64-.38-1.02-.94-.83-1.25,.18-.31,.85-.25,1.5,.13Z"/><path class="cls-35" d="M238,25.91c-7.15,.78-5.89-4.25-12.67-3.45,3.84,.75,4.76,4.23,9.52,8.72,2.86,2.7,6.78,2.36,9.44,1.65,.26-.4,.47-.84,.62-1.32l2.1-6.79c-1.99,.32-5.08,.76-9.01,1.19Z"/><g><g><path class="cls-2" d="M239.53,25.74l-.09,5.05s1.24-1.07,1.59-5.23l-1.51,.18Z"/><path class="cls-2" d="M244.02,25.16l-.09,5.05s1.24-1.1,1.59-5.26l-1.51,.21Z"/></g><path class="cls-14" d="M244,26.38l1.38-.19c.06-.38,.11-.79,.14-1.23l-1.51,.21-.02,1.22Z"/><path class="cls-37" d="M239.51,27.01l1.38-.19c.06-.38,.11-.8,.15-1.25l-1.51,.18-.02,1.27Z"/></g><path class="cls-5" d="M251.36,35.62c1.36-.19,1.53-.52,1.53-.52-6.65,1.03-1.07-6.35-12.44-4.14l.07,.19c9.69-1.34,5.5,3.91,9.39,5.07,3.28,.98,5.72-.61,5.72-.61-1.94,.41-4.27,0-4.27,0Z"/><path class="cls-28" d="M240.53,65.24c-1.83,11.78-14.05,19.08-29,19.16-19.02,.1-23.65-4.41-30.46-8.74,0,0,0,0,0,0,.06,.19,.12,.37,.19,.56,0,0,0,0,0,0,.07,.18,.13,.36,.21,.52,.08,.17,.16,.35,.24,.52l.26,.48c.71,1.25,1.54,2.16,2.34,2.89,.8,.73,1.59,1.28,2.35,1.75,.76,.47,1.52,.86,2.24,1.19,.73,.34,1.45,.62,2.15,.87,2.82,.99,5.49,1.53,8.11,1.91,2.62,.38,5.19,.56,7.74,.66,.64,.02,1.27,.04,1.9,.05,.63,0,1.25,.02,1.92,0,1.31,0,2.64-.06,3.98-.16,2.68-.21,5.42-.6,8.2-1.38,2.78-.77,5.63-1.92,8.33-3.74,1.34-.91,2.63-1.99,3.8-3.24,.76-.83,1.47-1.73,2.09-2.69,2.67-4.82,3.23-8.82,3.23-8.82,.08-.61,.14-1.21,.17-1.8Z"/><path class="cls-36" d="M227.67,61.87s-.06-.02-.09-.02c-.62-.16-1.24-.32-1.87-.47-2.5-.56-5-1-7.52-1.29,2.54,2.83,4.22,6.86,.92,11.68,1.14,.1,2.28,.21,3.41,.36,0,0,6.32-3.16,5.15-10.26Z"/><path class="cls-29" d="M183.54,76.13c-3.69-6.12,3.42-14.76,33.14-11.05,0,0-19.97-.85-28.05,3.13-5.99,2.95-5.09,7.92-5.09,7.92Z"/><path class="cls-27" d="M246.95,76.05c8.28,5.66,20.86,3.17,22.42-5.09,0,0-6.64,11.7-20.96,2.8-.48-.3-1.1-.27-1.55,.08h0c-.74,.57-.69,1.69,.09,2.22Z"/><g><path class="cls-26" d="M227.67,61.87s-.06-.02-.09-.02c-.62-.16-1.24-.35-1.86-.49-2.5-.56-5.02-.98-7.54-1.27-5.04-.6-10.09-.67-15.1-.4-1.25,.07-2.51,.16-3.76,.27l-.94,.09-.47,.05-.52,.06c-.69,.08-1.39,.19-2.1,.31-1.41,.25-2.84,.6-4.3,1.08-1.47,.5-2.96,1.12-4.53,2.1-.78,.49-1.58,1.07-2.37,1.83-.79,.76-1.61,1.7-2.28,2.98-.53,1-.95,2.24-1.08,3.57,7.03-13.92,45.83-6.77,46.68-5.69,.8-2.47,.27-4.46,.27-4.46Z"/><path class="cls-16" d="M266.64,61.24c-.37-.31-.6-.62-.99-.9,.73,.95,1.39,1.94,1.91,2.97,.54,1.02,.91,2.1,1.12,3.17,.1,.53,.16,1.07,.17,1.59,0,.52-.04,1.04-.13,1.53-.09,.5-.24,.97-.43,1.43-.18,.45-.41,.88-.68,1.29-1.06,1.62-2.71,2.76-4.53,3.43-.91,.33-1.87,.55-2.83,.67-.97,.12-1.95,.11-2.93,.03-.98-.09-1.95-.28-2.9-.55-.95-.26-1.88-.61-2.78-1.03-1.8-.85-3.51-1.95-5.07-3.26l-1.33-1.14c-.26-.22-.52-.44-.79-.64-.27-.21-.53-.42-.81-.62-1.06-.78-2.15-1.58-3.26-2.24-.23,1.2-.51,2.34-.78,3.27,9.37,4.25,12.45,8.95,21.9,7.39,9.02-1.49,10.08-11.43,5.14-16.38Z"/></g><path class="cls-22" d="M204.37,17.8s12.2-10.49,30.47-4.15c0,0-15.75-4.59-30.47,4.15Z"/></g><path class="cls-24" d="M44.56,63.52v7.23H10.02v-16.12c0-9.52,6.81-17.23,15.15-17.23h19.39v12.79h-7.3v-5.56h-12.09c-4.38,0-7.92,4.52-7.92,10.01v8.89h27.31Zm39.89-26.13v14.11c0,10.63-7.71,19.25-17.23,19.25h-17.3v-7.23h17.3c5.49,0,9.94-5.42,9.94-12.02v-14.11h7.3Zm-34.54,8.96v-8.96h7.23v8.96c0,2.36,1.95,4.24,4.31,4.24h9.87v7.3h-9.87c-6.39,0-11.54-5.21-11.54-11.54Zm64.9,10.77h-24.88v-7.23h24.88c1.32,0,2.29-1.18,2.29-2.64s-.97-2.64-2.29-2.64h-24.88v-7.23h24.88c5.28,0,9.59,4.45,9.59,9.87s-4.31,9.87-9.59,9.87Zm2.29,1.46h7.3c0,6.74-4.66,12.16-10.35,12.16h-24.11v-7.23h24.11c1.46,0,3.06-2.08,3.06-4.93Zm47.04-21.19v7.23h-24.6c-1.6,0-2.85,1.25-2.85,2.85v5.07h15.84v7.3h-23.07v-12.37c0-5.56,4.52-10.08,10.08-10.08h24.6Zm-34.61,33.36v-7.23h34.54v7.23h-34.54Zm64.49-13.62h-17.58v13.62h-7.23v-13.62h-.07v-7.23h24.88c1.32,0,2.29-1.18,2.29-2.64s-.97-2.64-2.29-2.64h-24.88v-7.23h24.88c5.28,0,9.59,4.45,9.59,9.87s-4.31,9.87-9.59,9.87Zm2.29,13.62v-12.51h7.3v12.51h-7.3Z"/><g><path class="cls-25" d="M287.57,74.31v-.87h.85v.59l.56,.55h2.37l.56-.55v-1.71l-.54-.54h-2.23v-.76h2.23l.54-.54v-1.66l-.56-.55h-2.3l-.56,.55v.59h-.85v-.87l1.03-1.03h3.06l1.03,1.03v2.19l-.68,.67,.68,.68v2.22l-1.03,1.03h-3.13l-1.03-1.03Z"/><path class="cls-17" d="M294.26,74.22v-5.59l1.12-1.12h3.22l1.12,1.12v5.59l-1.12,1.12h-3.22l-1.12-1.12Zm3.95,.36l.65-.64v-5.03l-.65-.64h-2.46l-.65,.64v5.03l.65,.64h2.46Z"/><path class="cls-23" d="M301.28,74.22v-5.59l1.12-1.12h3.22l1.12,1.12v5.59l-1.12,1.12h-3.22l-1.12-1.12Zm3.95,.36l.65-.64v-5.03l-.65-.64h-2.46l-.65,.64v5.03l.65,.64h2.46Z"/><path class="cls-19" d="M308.29,74.22v-5.59l1.12-1.12h3.22l1.12,1.12v5.59l-1.12,1.12h-3.22l-1.12-1.12Zm3.95,.36l.65-.64v-5.03l-.65-.64h-2.46l-.65,.64v5.03l.65,.64h2.46Z"/><path class="cls-20" d="M318.15,67.52h4.47l1.03,1.03v2.51l-1.04,1.04h-3.61v3.24h-.85v-7.82Zm4.1,3.84l.56-.55v-2.01l-.56-.55h-3.25v3.11h3.25Z"/><path class="cls-18" d="M324.93,69.77h.8v.99l.99-.99h1.44v.74h-1.23l-1.18,1.18v3.64h-.83v-5.56Z"/><path class="cls-21" d="M328.84,74.31v-3.51l1.03-1.03h2.86l1.03,1.03v3.51l-1.03,1.03h-2.86l-1.03-1.03Zm3.53,.29l.56-.55v-2.99l-.56-.55h-2.15l-.56,.55v2.99l.56,.55h2.15Z"/></g><g><path class="cls-31" d="M260.42,52.86h-2.43c-.19-1.63-1.01-2.45-2.45-2.45-.67,0-1.25,.24-1.73,.72-.48,.48-.72,1.06-.72,1.73v7.33c0,.66,.24,1.23,.72,1.71,.48,.48,1.06,.72,1.74,.72,1.44,0,2.26-.81,2.45-2.43h2.43c-.2,3.25-1.83,4.88-4.88,4.88h-2.45c-1.34,0-2.48-.48-3.44-1.44s-1.44-2.11-1.44-3.44v-7.33c0-1.35,.48-2.51,1.44-3.47,.96-.96,2.11-1.44,3.44-1.44h2.45c3.07,0,4.7,1.63,4.88,4.9Z"/><path class="cls-33" d="M270.21,47.96h4.9c1.34,0,2.48,.48,3.44,1.45,.96,.97,1.44,2.12,1.44,3.45v7.33c0,1.32-.48,2.47-1.44,3.43-.96,.97-2.11,1.45-3.44,1.45h-4.9c-1.34,0-2.48-.48-3.44-1.44s-1.44-2.11-1.44-3.44v-7.33c0-1.35,.48-2.51,1.44-3.47,.96-.96,2.11-1.44,3.44-1.44Zm0,4.9v7.33c0,.66,.24,1.23,.72,1.71,.48,.48,1.06,.72,1.74,.72s1.26-.24,1.74-.72c.48-.48,.72-1.05,.72-1.71v-7.33c0-.67-.24-1.25-.73-1.73-.48-.48-1.06-.72-1.72-.72s-1.25,.24-1.73,.72c-.48,.48-.72,1.06-.72,1.73Z"/><path class="cls-32" d="M284.87,65.07v-22h4.88v7.33c.1-.82,.35-1.44,.76-1.84,.41-.41,.97-.61,1.69-.61h2.45c1.34,0,2.48,.48,3.44,1.45,.96,.97,1.44,2.12,1.44,3.45v7.33c0,1.32-.48,2.47-1.44,3.43-.96,.97-2.11,1.45-3.44,1.45h-9.79Zm4.88-2.45h2.45c.68,0,1.26-.24,1.74-.72,.48-.48,.72-1.05,.72-1.71v-7.33c0-.67-.24-1.25-.73-1.73-.48-.48-1.06-.72-1.72-.72s-1.25,.24-1.73,.72c-.48,.48-.72,1.06-.72,1.73v9.76Z"/><path class="cls-30" d="M309.3,65.07h-4.88v-17.12h4.88v4.9c.19-1.63,.7-2.86,1.51-3.68s1.95-1.23,3.39-1.23h2.43v4.9h-4.88c-.67,0-1.25,.24-1.73,.72-.48,.48-.72,1.05-.72,1.71v9.79Z"/><path class="cls-34" d="M328.87,55.29v-2.43c0-.67-.24-1.25-.73-1.73-.48-.48-1.06-.72-1.72-.72h-2.45c-1.44,0-2.25,.82-2.43,2.45h-2.45c.37-3.27,2-4.9,4.88-4.9h4.9c1.34,0,2.48,.48,3.44,1.45,.96,.97,1.44,2.12,1.44,3.45v12.21h-4.88v-2.45c-.19,1.63-1.01,2.45-2.45,2.45h-2.45c-1.34,0-2.48-.48-3.44-1.44s-1.44-2.11-1.44-3.44v-.02c0-1.34,.48-2.48,1.44-3.44,.96-.96,2.11-1.44,3.44-1.44h4.9Zm0,2.45h-2.45c-.67,0-1.25,.24-1.73,.72-.48,.48-.72,1.05-.72,1.71v.02c0,.66,.24,1.23,.72,1.71,.48,.48,1.06,.72,1.74,.72s1.26-.24,1.74-.72c.48-.48,.72-1.05,.72-1.71v-2.45Z"/></g></g><g><g><path d="M334.46,37.23h-.8v-.3h1.96v.3h-.8v2.27h-.37v-2.27Z"/><path d="M338.52,36.94v2.56h-.35v-2.19h-.01l-.74,2.19h-.38l-.73-2.19h-.01v2.19h-.35v-2.56h.58l.7,2.16h0l.71-2.16h.58Z"/></g><path d="M336.24,41.96c-2.06,0-3.74-1.68-3.74-3.74s1.68-3.74,3.74-3.74,3.74,1.68,3.74,3.74-1.68,3.74-3.74,3.74Zm0-7.2c-1.91,0-3.46,1.55-3.46,3.46s1.55,3.46,3.46,3.46,3.46-1.55,3.46-3.46-1.55-3.46-3.46-3.46Z"/></g></svg>