<?xml version="1.0" encoding="UTF-8"?><svg id="Layer_1" xmlns="http://www.w3.org/2000/svg" xmlns:xlink="http://www.w3.org/1999/xlink" viewBox="0 0 124.23 34.71"><defs><style>.cls-1{fill:url(#linear-gradient);}.cls-2{fill:#fff;}.cls-3{fill:#7a0068;opacity:.22;}.cls-4{fill:url(#linear-gradient-8);}.cls-5{fill:url(#linear-gradient-9);}.cls-6{fill:url(#linear-gradient-3);}.cls-7{fill:url(#linear-gradient-4);}.cls-8{fill:url(#linear-gradient-2);}.cls-9{fill:url(#linear-gradient-6);}.cls-10{fill:url(#linear-gradient-7);}.cls-11{fill:url(#linear-gradient-5);}.cls-12{fill:url(#Degradado_sin_nombre_52);}.cls-13{fill:url(#Degradado_sin_nombre_66);}.cls-14{fill:url(#Degradado_sin_nombre_24);}.cls-15{fill:url(#Degradado_sin_nombre_15);}.cls-16{fill:url(#linear-gradient-14);}.cls-17{fill:url(#linear-gradient-18);}.cls-18{fill:url(#linear-gradient-22);}.cls-19{fill:url(#linear-gradient-20);}.cls-20{fill:url(#linear-gradient-21);}.cls-21{fill:url(#linear-gradient-23);}.cls-22{fill:url(#linear-gradient-15);}.cls-23{fill:url(#linear-gradient-19);}.cls-24{fill:url(#linear-gradient-16);}.cls-25{fill:url(#linear-gradient-17);}.cls-26{fill:url(#linear-gradient-13);}.cls-27{fill:url(#linear-gradient-12);}.cls-28{fill:url(#linear-gradient-10);}.cls-29{fill:url(#linear-gradient-11);}.cls-30{fill:url(#linear-gradient-27);}.cls-31{fill:url(#linear-gradient-24);}.cls-32{fill:url(#linear-gradient-26);}.cls-33{fill:url(#linear-gradient-25);}.cls-34{fill:url(#linear-gradient-28);}.cls-35{fill:url(#Degradado_sin_nombre_52-2);}.cls-36{fill:url(#Degradado_sin_nombre_52-3);}.cls-37{fill:url(#Degradado_sin_nombre_24-2);}</style><linearGradient id="linear-gradient" x1="78.51" y1="22.99" x2="75.27" y2="7.44" gradientUnits="userSpaceOnUse"><stop offset="0" stop-color="#d12060"/><stop offset=".15" stop-color="#db2351"/><stop offset=".49" stop-color="#ee2b34"/><stop offset=".78" stop-color="#fa3023"/><stop offset="1" stop-color="#ff321d"/></linearGradient><linearGradient id="linear-gradient-2" x1="77.93" y1="19.4" x2="76.26" y2="12.23" gradientUnits="userSpaceOnUse"><stop offset=".06" stop-color="#ff321d"/><stop offset=".29" stop-color="#ec2c29"/><stop offset=".75" stop-color="#bb1f49"/><stop offset=".9" stop-color="#aa1a55"/></linearGradient><linearGradient id="linear-gradient-3" x1="82.46" y1="17.83" x2="68.93" y2="35.12" gradientUnits="userSpaceOnUse"><stop offset="0" stop-color="#1745a1"/><stop offset=".79" stop-color="#011474"/></linearGradient><linearGradient id="linear-gradient-4" x1="72.97" y1="9.06" x2="88.38" y2="24.47" gradientUnits="userSpaceOnUse"><stop offset="0" stop-color="#d12060"/><stop offset=".07" stop-color="#864d9a"/><stop offset=".15" stop-color="#3182dc"/><stop offset=".25" stop-color="#286ec9"/><stop offset=".48" stop-color="#1646a3"/><stop offset=".69" stop-color="#0a2988"/><stop offset=".87" stop-color="#021877"/><stop offset="1" stop-color="#001272"/></linearGradient><linearGradient id="Degradado_sin_nombre_52" x1="78.42" y1="12.7" x2="75.68" y2="2.61" gradientUnits="userSpaceOnUse"><stop offset="0" stop-color="#002d68"/><stop offset=".95" stop-color="#001f4a"/></linearGradient><linearGradient id="linear-gradient-5" x1="77.67" y1="4.62" x2="77.67" y2="12.79" xlink:href="#linear-gradient"/><linearGradient id="linear-gradient-6" x1="84.41" y1="5.48" x2="85.38" y2="9.83" gradientUnits="userSpaceOnUse"><stop offset="0" stop-color="#ff2966"/><stop offset=".05" stop-color="#ff2f63"/><stop offset=".29" stop-color="#ff4d5a"/><stop offset=".54" stop-color="#ff6254"/><stop offset=".77" stop-color="#ff6f50"/><stop offset="1" stop-color="#ff744f"/></linearGradient><linearGradient id="linear-gradient-7" x1="79.84" y1="13.68" x2="79.71" y2="6.83" xlink:href="#linear-gradient-6"/><linearGradient id="linear-gradient-8" x1="82.52" y1="9.76" x2="80.98" y2="7.82" xlink:href="#linear-gradient"/><linearGradient id="Degradado_sin_nombre_15" x1="81.56" y1="7.93" x2="81.56" y2="9.15" gradientUnits="userSpaceOnUse"><stop offset="0" stop-color="#ff4b2a"/><stop offset=".46" stop-color="#ffa111"/><stop offset=".79" stop-color="#fd0"/></linearGradient><linearGradient id="Degradado_sin_nombre_66" x1="-13.95" y1="641.62" x2="-13.95" y2="643.03" gradientTransform="translate(-354.45 -269.74) rotate(-59.29) scale(1.17 .8)" gradientUnits="userSpaceOnUse"><stop offset=".26" stop-color="#fff47b"/><stop offset=".35" stop-color="#fff272"/><stop offset=".5" stop-color="#ffed59"/><stop offset=".68" stop-color="#ffe632"/><stop offset=".87" stop-color="#fd0"/></linearGradient><linearGradient id="Degradado_sin_nombre_52-2" x1="84.18" y1="13.73" x2="82.07" y2="9.35" xlink:href="#Degradado_sin_nombre_52"/><linearGradient id="Degradado_sin_nombre_24" x1="84.76" y1="9.71" x2="84.76" y2="10.81" gradientUnits="userSpaceOnUse"><stop offset="0" stop-color="#a2fff9"/><stop offset=".4" stop-color="#a0fdf8"/><stop offset=".54" stop-color="#9af6f5"/><stop offset=".65" stop-color="#8feaef"/><stop offset=".73" stop-color="#80d9e8"/><stop offset=".8" stop-color="#6cc3de"/><stop offset=".86" stop-color="#54a8d2"/><stop offset=".92" stop-color="#3688c4"/><stop offset=".97" stop-color="#1663b4"/><stop offset="1" stop-color="#004ba9"/></linearGradient><linearGradient id="Degradado_sin_nombre_24-2" x1="83.3" y1="9.9" x2="83.3" y2="11.03" xlink:href="#Degradado_sin_nombre_24"/><linearGradient id="linear-gradient-9" x1="83.36" y1="12.37" x2="88.28" y2="12.37" xlink:href="#linear-gradient-3"/><linearGradient id="linear-gradient-10" x1="64.09" y1="26.2" x2="83.38" y2="26.2" xlink:href="#linear-gradient-3"/><linearGradient id="Degradado_sin_nombre_52-3" x1="76.14" y1="22.94" x2="79.26" y2="22.94" xlink:href="#Degradado_sin_nombre_52"/><linearGradient id="linear-gradient-11" x1="64.6" y1="24.26" x2="75.64" y2="24.26" xlink:href="#linear-gradient-3"/><linearGradient id="linear-gradient-12" x1="83.36" y1="25.5" x2="94.13" y2="26" xlink:href="#linear-gradient-3"/><linearGradient id="linear-gradient-13" x1="62.39" y1="19.99" x2="82.63" y2="27.08" xlink:href="#linear-gradient"/><linearGradient id="linear-gradient-14" x1="88.63" y1="27.09" x2="87.6" y2="22.16" xlink:href="#linear-gradient"/><linearGradient id="linear-gradient-15" x1="71.65" y1="6.26" x2="81.54" y2="6.26" gradientUnits="userSpaceOnUse"><stop offset="0" stop-color="#ff5037"/><stop offset="1" stop-color="#ffb931"/></linearGradient><linearGradient id="linear-gradient-16" x1="11.5" y1="28.26" x2="79.85" y2="7.68" xlink:href="#linear-gradient-4"/><linearGradient id="linear-gradient-17" x1="95.23" y1="24.98" x2="115.04" y2="23.53" xlink:href="#linear-gradient-2"/><linearGradient id="linear-gradient-18" x1="95.24" y1="25.14" x2="115.05" y2="23.69" xlink:href="#linear-gradient-2"/><linearGradient id="linear-gradient-19" x1="95.25" y1="25.31" x2="115.07" y2="23.86" xlink:href="#linear-gradient-2"/><linearGradient id="linear-gradient-20" x1="95.26" y1="25.47" x2="115.08" y2="24.02" xlink:href="#linear-gradient-2"/><linearGradient id="linear-gradient-21" x1="95.27" y1="25.65" x2="115.09" y2="24.2" xlink:href="#linear-gradient-2"/><linearGradient id="linear-gradient-22" x1="95.31" y1="26.18" x2="115.13" y2="24.72" xlink:href="#linear-gradient-2"/><linearGradient id="linear-gradient-23" x1="95.32" y1="26.32" x2="115.14" y2="24.87" xlink:href="#linear-gradient-2"/><linearGradient id="linear-gradient-24" x1="86.66" y1="19.86" x2="108.37" y2="19.27" xlink:href="#linear-gradient-4"/><linearGradient id="linear-gradient-25" x1="86.67" y1="20.02" x2="108.38" y2="19.43" xlink:href="#linear-gradient-4"/><linearGradient id="linear-gradient-26" x1="86.65" y1="19.38" x2="108.36" y2="18.79" xlink:href="#linear-gradient-4"/><linearGradient id="linear-gradient-27" x1="86.68" y1="20.32" x2="108.39" y2="19.73" gradientUnits="userSpaceOnUse"><stop offset=".15" stop-color="#3182dc"/><stop offset=".16" stop-color="#4177cf"/><stop offset=".22" stop-color="#7458a7"/><stop offset=".28" stop-color="#9c4088"/><stop offset=".32" stop-color="#b92e72"/><stop offset=".37" stop-color="#ca2364"/><stop offset=".4" stop-color="#d12060"/><stop offset=".75" stop-color="#56176a"/><stop offset="1" stop-color="#001272"/></linearGradient><linearGradient id="linear-gradient-28" x1="86.68" y1="20.52" x2="108.39" y2="19.93" xlink:href="#linear-gradient-4"/></defs><g><g><path class="cls-1" d="M69.77,8.67c-4.66,5.16,8.99,7.86,9.48,13.21l3.12,.04s3.11-5.5,.67-10.29c-2.89-5.69-9.85-5.87-13.28-2.96Z"/><path class="cls-8" d="M79.63,21.46c-.46-2.35-3.12-4.13-5.7-5.86-2.31-1.55-4.48-3.01-4.68-4.59-.08-.66,.19-1.32,.82-2.03,1.31-1.1,3.17-1.73,5.11-1.73,3.23,0,6.03,1.71,7.49,4.58,2.04,4-.03,8.61-.55,9.67l-2.49-.04Z"/><path class="cls-6" d="M93.42,24.12c-.01-.22-.05-.44-.1-.65-.05-.21-.13-.41-.21-.6-.36-.77-.94-1.35-1.57-1.79,.24,.31,.45,.63,.62,.96,.17,.33,.3,.68,.36,1.03,.03,.17,.05,.35,.05,.52,0,.17-.01,.34-.04,.5-.03,.16-.08,.32-.14,.46-.06,.15-.13,.29-.22,.42-.34,.52-.88,.9-1.47,1.11-.3,.11-.61,.18-.92,.22-.31,.04-.63,.03-.95,0-.32-.03-.63-.09-.94-.18-.31-.08-.61-.2-.9-.33-.59-.27-1.14-.63-1.64-1.06l-.43-.37c-.08-.07-.17-.14-.26-.21-.09-.07-.17-.14-.26-.2-.34-.25-.7-.48-1.06-.7,.03-.25,.06-.49,.07-.73,.04-1.02-.1-1.99-.33-2.88-.23-.9-.55-1.74-.92-2.53-.37-.79-.79-1.54-1.25-2.25-.23-.36-.47-.7-.71-1.05-.12-.17-.25-.34-.37-.5-.06-.08-.13-.17-.19-.25l-.18-.24c-.44-.56-.85-1.13-1.21-1.69-.18-.28-.34-.56-.47-.83,0,0,0,0,0,0-.21-.42,.12-.9,.59-.88,.53,.03,1.16,.08,1.51,.16l.88-3.84c-.84-.2-1.71-.36-2.7-.38-.5,0-1.02,.02-1.62,.15-.3,.07-.61,.16-.95,.32-.33,.15-.68,.37-1,.67-.32,.3-.61,.69-.79,1.1-.19,.41-.28,.83-.32,1.2-.04,.38-.02,.72,.02,1.03,.04,.31,.1,.59,.18,.86,.15,.52,.34,.98,.54,1.4,.2,.42,.42,.82,.65,1.19,.45,.75,.94,1.43,1.44,2.08l.17,.22c.05,.07,.11,.14,.16,.21,.11,.14,.21,.28,.31,.42,.2,.29,.4,.57,.58,.86,.74,1.16,1.33,2.39,1.63,3.58,.08,.31,.14,.62,.17,.91,0,0-.02,0-.03,0-.2-.05-.4-.11-.61-.15-.81-.18-1.63-.33-2.45-.42-1.64-.19-3.27-.22-4.9-.13-.41,.02-.81,.05-1.22,.09l-.3,.03h-.15s-.17,.03-.17,.03c-.22,.03-.45,.06-.68,.1-.46,.08-.92,.19-1.4,.35-.48,.16-.96,.36-1.47,.68-.25,.16-.51,.35-.77,.59-.26,.25-.52,.55-.74,.97-.22,.41-.38,.95-.37,1.52,0,.28,.05,.56,.13,.81,.04,.12,.08,.25,.13,.36,.02,.06,.05,.11,.08,.17l.08,.16c.23,.41,.5,.7,.76,.94,.26,.24,.52,.42,.76,.57,.25,.15,.49,.28,.73,.39,.24,.11,.47,.2,.7,.28,.91,.32,1.78,.5,2.63,.62,.85,.12,1.69,.18,2.51,.21,.21,0,.41,.01,.62,.02,.2,0,.41,0,.62,0,.43,0,.86-.02,1.29-.05,.87-.07,1.76-.2,2.66-.45,.9-.25,1.83-.62,2.7-1.21,.44-.29,.85-.65,1.23-1.05,.25-.27,.48-.56,.68-.87,.19,.09,.38,.17,.56,.27,.07,.04,.14,.08,.22,.12,.07,.04,.14,.08,.21,.12l.11,.06s.06,.04,.12,.07l.27,.18c.74,.46,1.55,.85,2.41,1.1,.43,.12,.87,.22,1.32,.27,.45,.05,.9,.06,1.35,.02,.9-.08,1.8-.33,2.58-.81,.39-.24,.75-.53,1.05-.88,.15-.17,.29-.36,.41-.55,.12-.2,.22-.4,.3-.62,.17-.43,.24-.89,.22-1.34Zm-18.74,1.47c-.33,.03-.67,.05-1.01,.05-.17,0-.35,0-.53,0-.18,0-.36,0-.54,0-.71-.02-1.41-.07-2.08-.16-.6-.08-1.19-.19-1.69-.35,.19-.06,.39-.1,.59-.14,.15-.03,.3-.05,.46-.07l.12-.02,.13-.02,.27-.03c.36-.04,.72-.07,1.08-.1,.72-.05,1.44-.08,2.16-.08,.72,0,1.44,.02,2.15,.06,.59,.04,1.17,.09,1.75,.17-.3,.15-.63,.27-.99,.38-.57,.17-1.21,.27-1.87,.32Z"/><path class="cls-7" d="M79.16,12.93c-3.13-3.27-4.62-1.83-2.92,.11,1.7,1.94,5.15,4.4,6.84,8.46,0,0-.04-3.79-3.92-8.57Z"/><path class="cls-12" d="M77.77,10.24s0,0,0,0c-.21-.42,.22-.88,.68-.85,.53,.03,1.06,.06,1.41,.14l.88-3.84c-.84-.2-1.71-.36-2.7-.38-.5,0-1.02,.02-1.62,.15-.3,.07-.61,.16-.95,.32-.33,.15-.68,.37-1,.67-.32,.3-.61,.69-.79,1.1-.19,.41-.28,.83-.32,1.2-.04,.37-.02,.71,.02,1.02,1.75-1.68,3.81,.89,5.49,2.25-.23-.31-.44-.63-.64-.94-.18-.28-.34-.56-.47-.83Z"/><path class="cls-11" d="M69.77,8.67c5.11-5.58,12.13-4.12,15.38-.51,.36,.4,.53,.79,.35,1.3l-.7,2.25c-.27,.87-1.17,1.38-2.06,1.16-.85-.21-1.92-.71-2.98-1.84-2.29-2.45-6.7-3.96-10-2.36Z"/><path class="cls-3" d="M74.94,8.19s2.43-1.9,5.35-1.54c3.47,.43,3.33,3.12,3.33,3.12l-8.68-1.59Z"/><path class="cls-9" d="M85.15,8.16c-.19-.21-.4-.42-.62-.62,1.44,1.46,.45,2.27,.45,2.27l.4,.04,.12-.4c.18-.51,.01-.9-.35-1.3Z"/><path class="cls-10" d="M83.68,10.21c-.43-4.04-5.76-3.11-9-1.99,1.98,.43,3.85,1.48,5.09,2.81,1.06,1.13,2.13,1.63,2.98,1.84,.89,.22,1.79-.29,2.06-1.16l.05-.17c-.6-.7-1.17-1.34-1.17-1.34Z"/><path class="cls-4" d="M81.87,9.38c-.53,0-.92-.26-1.27-.85l-.32-.6,.24-.08c.17-.06,.36-.08,.54-.08,.76,0,1.43,.49,1.67,1.22l.07,.2-.2,.07c-.28,.09-.51,.13-.72,.13h0Z"/><path class="cls-15" d="M80.59,8.05l.2,.37c.44,.75,.93,.89,1.74,.63-.26-.81-1.13-1.26-1.94-.99Z"/><path class="cls-13" d="M81.73,8.18c.21,.12,.33,.31,.27,.41-.06,.1-.28,.08-.49-.04-.21-.12-.33-.31-.27-.41,.06-.1,.28-.08,.49,.04Z"/><path class="cls-35" d="M82.56,9.9c-2.32,.25-1.91-1.38-4.11-1.12,1.25,.24,1.55,1.37,3.09,2.83,.93,.88,2.2,.76,3.06,.54,.08-.13,.15-.27,.2-.43l.68-2.2c-.64,.1-1.65,.25-2.92,.39Z"/><g><g><path class="cls-2" d="M83.06,9.84l-.03,1.64s.4-.35,.52-1.7l-.49,.06Z"/><path class="cls-2" d="M84.52,9.65l-.03,1.64s.4-.36,.52-1.71l-.49,.07Z"/></g><path class="cls-14" d="M84.51,10.05l.45-.06c.02-.12,.03-.26,.05-.4l-.49,.07v.39Z"/><path class="cls-37" d="M83.05,10.25l.45-.06c.02-.12,.03-.26,.05-.41l-.49,.06v.41Z"/></g><path class="cls-5" d="M86.9,13.05c.44-.06,.5-.17,.5-.17-2.16,.34-.35-2.06-4.04-1.34l.02,.06c3.14-.43,1.79,1.27,3.05,1.65,1.06,.32,1.86-.2,1.86-.2-.63,.13-1.39,0-1.39,0Z"/><path class="cls-28" d="M83.38,22.66c-.59,3.82-4.56,6.19-9.41,6.22-6.17,.03-7.67-1.43-9.88-2.84,0,0,0,0,0,0,.02,.06,.04,.12,.06,.18,0,0,0,0,0,0,.02,.06,.04,.12,.07,.17,.02,.06,.05,.11,.08,.17l.08,.16c.23,.41,.5,.7,.76,.94,.26,.24,.52,.42,.76,.57,.25,.15,.49,.28,.73,.39,.24,.11,.47,.2,.7,.28,.91,.32,1.78,.5,2.63,.62,.85,.12,1.69,.18,2.51,.21,.21,0,.41,.01,.62,.02,.2,0,.41,0,.62,0,.43,0,.86-.02,1.29-.05,.87-.07,1.76-.2,2.66-.45,.9-.25,1.83-.62,2.7-1.21,.44-.29,.85-.65,1.23-1.05,.25-.27,.48-.56,.68-.87,.87-1.57,1.05-2.86,1.05-2.86,.03-.2,.04-.39,.06-.59Z"/><path class="cls-36" d="M79.21,21.56s-.02,0-.03,0c-.2-.05-.4-.11-.61-.15-.81-.18-1.62-.33-2.44-.42,.82,.92,1.37,2.22,.3,3.79,.37,.03,.74,.07,1.11,.12,0,0,2.05-1.02,1.67-3.33Z"/><path class="cls-29" d="M64.89,26.19c-1.2-1.99,1.11-4.79,10.76-3.59,0,0-6.48-.28-9.1,1.02-1.94,.96-1.65,2.57-1.65,2.57Z"/><path class="cls-27" d="M85.47,26.17c2.69,1.84,6.77,1.03,7.28-1.65,0,0-2.16,3.8-6.8,.91-.16-.1-.36-.09-.5,.02h0c-.24,.19-.22,.55,.03,.72Z"/><g><path class="cls-26" d="M79.21,21.56s-.02,0-.03,0c-.2-.05-.4-.11-.6-.16-.81-.18-1.63-.32-2.45-.41-1.64-.19-3.27-.22-4.9-.13-.41,.02-.81,.05-1.22,.09l-.3,.03h-.15s-.17,.03-.17,.03c-.22,.03-.45,.06-.68,.1-.46,.08-.92,.19-1.4,.35-.48,.16-.96,.36-1.47,.68-.25,.16-.51,.35-.77,.59-.26,.25-.52,.55-.74,.97-.17,.32-.31,.73-.35,1.16,2.28-4.52,14.87-2.2,15.15-1.85,.26-.8,.09-1.45,.09-1.45Z"/><path class="cls-16" d="M91.86,21.36c-.12-.1-.19-.2-.32-.29,.24,.31,.45,.63,.62,.96,.17,.33,.3,.68,.36,1.03,.03,.17,.05,.35,.05,.52,0,.17-.01,.34-.04,.5-.03,.16-.08,.32-.14,.46-.06,.15-.13,.29-.22,.42-.34,.52-.88,.9-1.47,1.11-.3,.11-.61,.18-.92,.22-.31,.04-.63,.03-.95,0-.32-.03-.63-.09-.94-.18-.31-.08-.61-.2-.9-.33-.59-.27-1.14-.63-1.64-1.06l-.43-.37c-.08-.07-.17-.14-.26-.21-.09-.07-.17-.14-.26-.2-.34-.25-.7-.51-1.06-.73-.08,.39-.16,.76-.25,1.06,3.04,1.38,4.04,2.9,7.11,2.4,2.93-.48,3.27-3.71,1.67-5.32Z"/></g><path class="cls-22" d="M71.65,7.26s3.96-3.4,9.89-1.35c0,0-5.11-1.49-9.89,1.35Z"/></g><path class="cls-24" d="M19.78,22.1v2.35H8.58v-5.23c0-3.09,2.21-5.59,4.92-5.59h6.29v4.15h-2.37v-1.8h-3.92c-1.42,0-2.57,1.47-2.57,3.25v2.89h8.86Zm12.94-8.48v4.58c0,3.45-2.5,6.25-5.59,6.25h-5.62v-2.35h5.62c1.78,0,3.22-1.76,3.22-3.9v-4.58h2.37Zm-11.21,2.91v-2.91h2.35v2.91c0,.77,.63,1.38,1.4,1.38h3.2v2.37h-3.2c-2.07,0-3.74-1.69-3.74-3.74Zm21.06,3.5h-8.07v-2.35h8.07c.43,0,.74-.38,.74-.86s-.32-.86-.74-.86h-8.07v-2.35h8.07c1.71,0,3.11,1.44,3.11,3.2s-1.4,3.2-3.11,3.2Zm.74,.47h2.37c0,2.19-1.51,3.95-3.36,3.95h-7.83v-2.35h7.83c.47,0,.99-.68,.99-1.6Zm15.27-6.88v2.35h-7.98c-.52,0-.92,.41-.92,.92v1.65h5.14v2.37h-7.49v-4.01c0-1.8,1.47-3.27,3.27-3.27h7.98Zm-11.23,10.83v-2.35h11.21v2.35h-11.21Zm20.93-4.42h-5.71v4.42h-2.35v-4.42h-.02v-2.35h8.07c.43,0,.74-.38,.74-.86s-.32-.86-.74-.86h-8.07v-2.35h8.07c1.71,0,3.11,1.44,3.11,3.2s-1.4,3.2-3.11,3.2Zm.74,4.42v-4.06h2.37v4.06h-2.37Z"/><g><path class="cls-25" d="M98.65,25.6v-.28h.28v.19l.18,.18h.77l.18-.18v-.55l-.17-.17h-.73v-.25h.73l.17-.17v-.54l-.18-.18h-.75l-.18,.18v.19h-.28v-.28l.33-.33h.99l.33,.33v.71l-.22,.22,.22,.22v.72l-.33,.33h-1.02l-.33-.33Z"/><path class="cls-17" d="M100.82,25.57v-1.81l.36-.36h1.04l.36,.36v1.81l-.36,.36h-1.04l-.36-.36Zm1.28,.12l.21-.21v-1.63l-.21-.21h-.8l-.21,.21v1.63l.21,.21h.8Z"/><path class="cls-23" d="M103.1,25.57v-1.81l.36-.36h1.04l.36,.36v1.81l-.36,.36h-1.04l-.36-.36Zm1.28,.12l.21-.21v-1.63l-.21-.21h-.8l-.21,.21v1.63l.21,.21h.8Z"/><path class="cls-19" d="M105.37,25.57v-1.81l.36-.36h1.04l.36,.36v1.81l-.36,.36h-1.04l-.36-.36Zm1.28,.12l.21-.21v-1.63l-.21-.21h-.8l-.21,.21v1.63l.21,.21h.8Z"/><path class="cls-20" d="M108.57,23.4h1.45l.33,.33v.82l-.34,.34h-1.17v1.05h-.28v-2.54Zm1.33,1.25l.18-.18v-.65l-.18-.18h-1.06v1.01h1.06Z"/><path class="cls-18" d="M110.77,24.13h.26v.32l.32-.32h.47v.24h-.4l-.38,.38v1.18h-.27v-1.81Z"/><path class="cls-21" d="M112.04,25.6v-1.14l.33-.33h.93l.33,.33v1.14l-.33,.33h-.93l-.33-.33Zm1.15,.09l.18-.18v-.97l-.18-.18h-.7l-.18,.18v.97l.18,.18h.7Z"/></g><g><path class="cls-31" d="M89.84,18.64h-.79c-.06-.53-.33-.8-.8-.8-.22,0-.41,.08-.56,.23-.16,.16-.23,.34-.23,.56v2.38c0,.21,.08,.4,.23,.55,.15,.16,.34,.23,.56,.23,.47,0,.73-.26,.8-.79h.79c-.06,1.06-.59,1.58-1.58,1.58h-.8c-.43,0-.81-.16-1.12-.47s-.47-.68-.47-1.12v-2.38c0-.44,.16-.81,.47-1.12,.31-.31,.68-.47,1.12-.47h.8c1,0,1.52,.53,1.58,1.59Z"/><path class="cls-33" d="M93.01,17.05h1.59c.43,0,.81,.16,1.12,.47,.31,.31,.47,.69,.47,1.12v2.38c0,.43-.16,.8-.47,1.11-.31,.31-.68,.47-1.12,.47h-1.59c-.43,0-.81-.16-1.12-.47s-.47-.68-.47-1.12v-2.38c0-.44,.16-.81,.47-1.12,.31-.31,.68-.47,1.12-.47Zm0,1.59v2.38c0,.21,.08,.4,.23,.55,.15,.16,.34,.23,.56,.23s.41-.08,.56-.23c.15-.16,.23-.34,.23-.55v-2.38c0-.22-.08-.41-.24-.56-.16-.16-.34-.23-.56-.23s-.41,.08-.56,.23c-.16,.16-.23,.34-.23,.56Z"/><path class="cls-32" d="M97.77,22.61v-7.14h1.58v2.38c.03-.27,.11-.47,.25-.6,.13-.13,.32-.2,.55-.2h.8c.43,0,.81,.16,1.12,.47,.31,.31,.47,.69,.47,1.12v2.38c0,.43-.16,.8-.47,1.11-.31,.31-.68,.47-1.12,.47h-3.18Zm1.58-.8h.8c.22,0,.41-.08,.56-.23,.15-.16,.23-.34,.23-.55v-2.38c0-.22-.08-.41-.24-.56-.16-.16-.34-.23-.56-.23s-.41,.08-.56,.23c-.16,.16-.23,.34-.23,.56v3.17Z"/><path class="cls-30" d="M105.7,22.61h-1.58v-5.56h1.58v1.59c.06-.53,.23-.93,.49-1.19s.63-.4,1.1-.4h.79v1.59h-1.58c-.22,0-.41,.08-.56,.23-.16,.16-.23,.34-.23,.56v3.18Z"/><path class="cls-34" d="M112.05,19.43v-.79c0-.22-.08-.41-.24-.56-.16-.16-.34-.23-.56-.23h-.8c-.47,0-.73,.27-.79,.8h-.8c.12-1.06,.65-1.59,1.58-1.59h1.59c.43,0,.81,.16,1.12,.47,.31,.31,.47,.69,.47,1.12v3.96h-1.58v-.8c-.06,.53-.33,.8-.8,.8h-.8c-.43,0-.81-.16-1.12-.47s-.47-.68-.47-1.12h0c0-.44,.16-.81,.47-1.13,.31-.31,.68-.47,1.12-.47h1.59Zm0,.8h-.8c-.22,0-.41,.08-.56,.23-.16,.16-.23,.34-.23,.56h0c0,.22,.08,.41,.23,.56,.15,.16,.34,.23,.56,.23s.41-.08,.56-.23c.15-.16,.23-.34,.23-.55v-.8Z"/></g></g><g><g><path d="M113.87,13.57h-.26v-.1h.64v.1h-.26v.74h-.12v-.74Z"/><path d="M115.19,13.47v.83h-.11v-.71h0l-.24,.71h-.12l-.24-.71h0v.71h-.11v-.83h.19l.23,.7h0l.23-.7h.19Z"/></g><path d="M114.44,15.1c-.67,0-1.21-.54-1.21-1.21s.54-1.21,1.21-1.21,1.21,.54,1.21,1.21-.54,1.21-1.21,1.21Zm0-2.34c-.62,0-1.12,.5-1.12,1.12s.5,1.12,1.12,1.12,1.12-.5,1.12-1.12-.5-1.12-1.12-1.12Z"/></g></svg>