<?xml version="1.0" encoding="UTF-8"?>
<svg id="Layer_1" xmlns="http://www.w3.org/2000/svg" xmlns:xlink="http://www.w3.org/1999/xlink" viewBox="0 0 241.04 133.06" style="background-color: rgb(255, 255, 255);">
  <defs>
    <style>
      .cls-1 {
        fill: none;
      }

      .cls-2 {
        fill: #cbccce;
      }

      .cls-3 {
        fill: #989a9d;
      }

      .cls-4 {
        fill: #bec0c2;
      }

      .cls-5 {
        fill: #abadaf;
      }

      .cls-6 {
        fill: #d1d3d4;
      }

      .cls-7 {
        fill: #c8c9cb;
      }

      .cls-8 {
        fill: #c7eafb;
      }

      .cls-9 {
        fill: #231f20;
      }

      .cls-10 {
        fill: #b7b9bc;
      }

      .cls-11 {
        fill: #aeb0b2;
      }

      .cls-12 {
        fill: #dbdcde;
      }

      .cls-13 {
        fill: #f2f2f3;
      }

      .cls-14 {
        fill: #bbbdbf;
      }

      .cls-15 {
        fill: #dedfe1;
      }

      .cls-16 {
        fill: #d8d9db;
      }

      .cls-17 {
        fill: #9b9da0;
      }

      .cls-18 {
        fill: #c1c3c5;
      }

      .cls-19 {
        fill: #ced0d1;
      }

      .cls-20 {
        fill: #00aeef;
      }

      .cls-21 {
        fill: #c4c6c8;
      }

      .cls-22 {
        clip-path: url(#clippath-1);
      }

      .cls-23 {
        clip-path: url(#clippath-2);
      }

      .cls-24 {
        fill: #b1b3b5;
      }

      .cls-25 {
        fill: #b4b6b8;
      }

      .cls-26 {
        fill: #e8e9ea;
      }

      .cls-27 {
        fill: #a4a6a9;
      }

      .cls-28 {
        fill: #e2e3e4;
      }

      .cls-29 {
        fill: #efeff0;
      }

      .cls-30 {
        fill: #9ea0a3;
      }

      .cls-31 {
        fill: #ebeced;
      }

      .cls-32 {
        fill: #a1a3a6;
      }

      .cls-33 {
        fill: #e5e6e7;
      }

      .cls-34 {
        fill: #a7aaac;
      }

      .cls-35 {
        fill: #95979a;
      }

      .cls-36 {
        clip-path: url(#clippath);
      }

      .cls-37 {
        fill: #d5d6d8;
      }
    </style>
    <clipPath id="clippath">
      <path class="cls-1" d="M68.7,98.83c0-3.35-2.7-6.08-6.03-6.08s-6.03,2.72-6.03,6.08,2.7,6.08,6.03,6.08,6.03-2.72,6.03-6.08"/>
    </clipPath>
    <clipPath id="clippath-1">
      <path class="cls-1" d="M129.01,50.2c0-3.35-2.7-6.08-6.03-6.08s-6.03,2.72-6.03,6.08,2.7,6.08,6.03,6.08,6.03-2.72,6.03-6.08"/>
    </clipPath>
    <clipPath id="clippath-2">
      <path class="cls-1" d="M189.31,98.83c0-3.35-2.7-6.08-6.03-6.08s-6.03,2.72-6.03,6.08,2.7,6.08,6.03,6.08,6.03-2.72,6.03-6.08"/>
    </clipPath>
  </defs>
  <path class="cls-8" d="M62.66,106.01c16.08,0,28.14-8.1,36.18-24.31,8.04-16.21,16.08-24.31,24.12-24.31s16.08,8.1,24.12,24.31c8.04,16.21,20.1,24.31,36.18,24.31H62.66"/>
  <rect class="cls-20" x="193.48" y="98.41" width="11.06" height="1.01"/>
  <polyline class="cls-20" points="188.96 98.92 199.01 96.9 199.01 100.95 188.96 98.92"/>
  <rect class="cls-20" x="40.72" y="98.41" width="11.06" height="1.01"/>
  <polyline class="cls-20" points="56.29 98.92 46.24 100.95 46.24 96.9 56.29 98.92"/>
  <g class="cls-36">
    <path class="cls-35" d="M71.2,98.83c0,4.74-3.82,8.6-8.53,8.6s-8.53-3.85-8.53-8.6,3.82-8.6,8.53-8.6,8.53,3.85,8.53,8.6"/>
    <path class="cls-3" d="M70.93,98.83c0,4.6-3.7,8.33-8.26,8.33s-8.26-3.73-8.26-8.33,3.7-8.33,8.26-8.33,8.26,3.73,8.26,8.33"/>
    <path class="cls-17" d="M70.67,98.83c0,4.45-3.58,8.06-7.99,8.06s-7.99-3.61-7.99-8.06,3.58-8.06,7.99-8.06,7.99,3.61,7.99,8.06"/>
    <path class="cls-30" d="M70.4,98.83c0,4.3-3.46,7.79-7.73,7.79s-7.73-3.49-7.73-7.79,3.46-7.79,7.73-7.79,7.73,3.49,7.73,7.79"/>
    <path class="cls-32" d="M70.14,98.83c0,4.15-3.34,7.52-7.46,7.52s-7.46-3.37-7.46-7.52,3.34-7.52,7.46-7.52,7.46,3.37,7.46,7.52"/>
    <path class="cls-27" d="M69.87,98.83c0,4-3.22,7.25-7.2,7.25s-7.19-3.25-7.19-7.25,3.22-7.25,7.19-7.25,7.2,3.25,7.2,7.25"/>
    <path class="cls-34" d="M69.6,98.83c0,3.85-3.1,6.98-6.93,6.98s-6.93-3.13-6.93-6.98,3.1-6.98,6.93-6.98,6.93,3.13,6.93,6.98"/>
    <path class="cls-5" d="M69.34,98.83c0,3.71-2.98,6.71-6.66,6.71s-6.66-3.01-6.66-6.71,2.99-6.72,6.66-6.72,6.66,3.01,6.66,6.72"/>
    <path class="cls-11" d="M69.07,98.83c0,3.56-2.87,6.45-6.4,6.45s-6.4-2.89-6.4-6.45,2.86-6.45,6.4-6.45,6.4,2.89,6.4,6.45"/>
    <path class="cls-24" d="M68.8,98.83c0,3.41-2.75,6.18-6.13,6.18s-6.13-2.77-6.13-6.18,2.75-6.18,6.13-6.18,6.13,2.77,6.13,6.18"/>
    <path class="cls-25" d="M68.54,98.83c0,3.26-2.63,5.91-5.86,5.91s-5.86-2.65-5.86-5.91,2.63-5.91,5.86-5.91,5.86,2.65,5.86,5.91"/>
    <path class="cls-10" d="M68.27,98.83c0,3.11-2.51,5.64-5.6,5.64s-5.6-2.53-5.6-5.64,2.51-5.64,5.6-5.64,5.6,2.53,5.6,5.64"/>
    <path class="cls-14" d="M68,98.83c0,2.96-2.39,5.37-5.33,5.37s-5.33-2.41-5.33-5.37,2.39-5.37,5.33-5.37,5.33,2.41,5.33,5.37"/>
    <path class="cls-4" d="M67.74,98.83c0,2.82-2.27,5.1-5.06,5.1s-5.06-2.29-5.06-5.1,2.27-5.1,5.06-5.1,5.06,2.29,5.06,5.1"/>
    <path class="cls-18" d="M67.47,98.83c0,2.67-2.15,4.84-4.8,4.84s-4.8-2.17-4.8-4.84,2.15-4.84,4.8-4.84,4.8,2.17,4.8,4.84"/>
    <path class="cls-21" d="M67.2,98.83c0,2.52-2.03,4.57-4.53,4.57s-4.53-2.04-4.53-4.57,2.03-4.57,4.53-4.57,4.53,2.05,4.53,4.57"/>
    <path class="cls-7" d="M66.94,98.83c0,2.37-1.91,4.3-4.26,4.3s-4.26-1.93-4.26-4.3,1.91-4.3,4.26-4.3,4.26,1.93,4.26,4.3"/>
    <path class="cls-2" d="M66.67,98.83c0,2.22-1.79,4.03-4,4.03s-4-1.81-4-4.03,1.79-4.03,4-4.03,4,1.8,4,4.03"/>
    <path class="cls-19" d="M66.4,98.83c0,2.08-1.67,3.76-3.73,3.76s-3.73-1.68-3.73-3.76,1.67-3.76,3.73-3.76,3.73,1.68,3.73,3.76"/>
    <path class="cls-6" d="M66.14,98.83c0,1.93-1.55,3.49-3.46,3.49s-3.46-1.56-3.46-3.49,1.55-3.49,3.46-3.49,3.46,1.56,3.46,3.49"/>
    <path class="cls-37" d="M65.87,98.83c0,1.78-1.43,3.22-3.2,3.22s-3.2-1.44-3.2-3.22,1.43-3.22,3.2-3.22,3.2,1.44,3.2,3.22"/>
    <path class="cls-16" d="M65.6,98.83c0,1.63-1.31,2.95-2.93,2.95s-2.93-1.32-2.93-2.95,1.31-2.96,2.93-2.96,2.93,1.32,2.93,2.96"/>
    <path class="cls-12" d="M65.34,98.83c0,1.48-1.19,2.69-2.67,2.69s-2.66-1.2-2.66-2.69,1.19-2.69,2.66-2.69,2.67,1.2,2.67,2.69"/>
    <path class="cls-15" d="M65.07,98.83c0,1.33-1.07,2.42-2.4,2.42s-2.4-1.08-2.4-2.42,1.08-2.42,2.4-2.42,2.4,1.08,2.4,2.42"/>
    <path class="cls-28" d="M64.81,98.83c0,1.19-.95,2.15-2.13,2.15s-2.13-.96-2.13-2.15.96-2.15,2.13-2.15,2.13.96,2.13,2.15"/>
    <path class="cls-33" d="M64.54,98.83c0,1.04-.84,1.88-1.86,1.88s-1.87-.84-1.87-1.88.84-1.88,1.87-1.88,1.86.84,1.86,1.88"/>
    <path class="cls-26" d="M64.27,98.83c0,.89-.72,1.61-1.6,1.61s-1.6-.72-1.6-1.61.72-1.61,1.6-1.61,1.6.72,1.6,1.61"/>
  </g>
  <path class="cls-31" d="M64.01,98.83c0,.74-.6,1.34-1.33,1.34s-1.33-.6-1.33-1.34.6-1.34,1.33-1.34,1.33.6,1.33,1.34"/>
  <path class="cls-29" d="M63.74,98.83c0,.59-.48,1.07-1.07,1.07s-1.07-.48-1.07-1.07.48-1.07,1.07-1.07,1.07.48,1.07,1.07"/>
  <path class="cls-13" d="M63.47,98.83c0,.45-.36.8-.8.8s-.8-.36-.8-.8.36-.81.8-.81.8.36.8.81"/>
  <path class="cls-20" d="M62.68,105.24c-3.51,0-6.37-2.88-6.37-6.42s2.86-6.41,6.37-6.41,6.37,2.88,6.37,6.41-2.86,6.42-6.37,6.42ZM62.68,93.08c-3.14,0-5.69,2.58-5.69,5.74s2.55,5.74,5.69,5.74,5.69-2.58,5.69-5.74-2.55-5.74-5.69-5.74Z"/>
  <g class="cls-22">
    <path class="cls-35" d="M131.5,50.2c0,4.74-3.82,8.6-8.53,8.6s-8.53-3.85-8.53-8.6,3.82-8.6,8.53-8.6,8.53,3.85,8.53,8.6"/>
    <path class="cls-3" d="M131.24,50.2c0,4.6-3.7,8.33-8.26,8.33s-8.26-3.73-8.26-8.33,3.7-8.33,8.26-8.33,8.26,3.73,8.26,8.33"/>
    <path class="cls-17" d="M130.97,50.2c0,4.45-3.58,8.06-7.99,8.06s-7.99-3.61-7.99-8.06,3.58-8.06,7.99-8.06,7.99,3.61,7.99,8.06"/>
    <path class="cls-30" d="M130.7,50.2c0,4.3-3.46,7.79-7.73,7.79s-7.73-3.49-7.73-7.79,3.46-7.79,7.73-7.79,7.73,3.49,7.73,7.79"/>
    <path class="cls-32" d="M130.44,50.2c0,4.15-3.34,7.52-7.46,7.52s-7.46-3.37-7.46-7.52,3.34-7.52,7.46-7.52,7.46,3.37,7.46,7.52"/>
    <path class="cls-27" d="M130.17,50.2c0,4-3.22,7.25-7.2,7.25s-7.19-3.25-7.19-7.25,3.22-7.25,7.19-7.25,7.2,3.25,7.2,7.25"/>
    <path class="cls-34" d="M129.9,50.2c0,3.85-3.1,6.98-6.93,6.98s-6.93-3.13-6.93-6.98,3.1-6.98,6.93-6.98,6.93,3.13,6.93,6.98"/>
    <path class="cls-5" d="M129.64,50.2c0,3.71-2.98,6.71-6.66,6.71s-6.66-3.01-6.66-6.71,2.99-6.71,6.66-6.71,6.66,3.01,6.66,6.71"/>
    <path class="cls-11" d="M129.37,50.2c0,3.56-2.86,6.45-6.39,6.45s-6.4-2.89-6.4-6.45,2.87-6.45,6.4-6.45,6.39,2.89,6.39,6.45"/>
    <path class="cls-24" d="M129.1,50.2c0,3.41-2.75,6.18-6.13,6.18s-6.13-2.77-6.13-6.18,2.75-6.18,6.13-6.18,6.13,2.77,6.13,6.18"/>
    <path class="cls-25" d="M128.84,50.2c0,3.26-2.63,5.91-5.86,5.91s-5.86-2.65-5.86-5.91,2.63-5.91,5.86-5.91,5.86,2.65,5.86,5.91"/>
    <path class="cls-10" d="M128.57,50.2c0,3.11-2.51,5.64-5.6,5.64s-5.6-2.53-5.6-5.64,2.51-5.64,5.6-5.64,5.6,2.53,5.6,5.64"/>
    <path class="cls-14" d="M128.31,50.2c0,2.96-2.39,5.37-5.33,5.37s-5.33-2.41-5.33-5.37,2.39-5.37,5.33-5.37,5.33,2.41,5.33,5.37"/>
    <path class="cls-4" d="M128.04,50.2c0,2.82-2.27,5.1-5.06,5.1s-5.06-2.29-5.06-5.1,2.27-5.1,5.06-5.1,5.06,2.29,5.06,5.1"/>
    <path class="cls-18" d="M127.77,50.2c0,2.67-2.15,4.84-4.8,4.84s-4.8-2.17-4.8-4.84,2.15-4.84,4.8-4.84,4.8,2.17,4.8,4.84"/>
    <path class="cls-21" d="M127.51,50.2c0,2.52-2.03,4.57-4.53,4.57s-4.53-2.04-4.53-4.57,2.03-4.57,4.53-4.57,4.53,2.04,4.53,4.57"/>
    <path class="cls-7" d="M127.24,50.2c0,2.37-1.91,4.3-4.26,4.3s-4.26-1.93-4.26-4.3,1.91-4.3,4.26-4.3,4.26,1.93,4.26,4.3"/>
    <path class="cls-2" d="M126.97,50.2c0,2.22-1.79,4.03-4,4.03s-4-1.81-4-4.03,1.79-4.03,4-4.03,4,1.81,4,4.03"/>
    <path class="cls-19" d="M126.71,50.2c0,2.08-1.67,3.76-3.73,3.76s-3.73-1.68-3.73-3.76,1.67-3.76,3.73-3.76,3.73,1.68,3.73,3.76"/>
    <path class="cls-6" d="M126.44,50.2c0,1.93-1.55,3.49-3.46,3.49s-3.46-1.56-3.46-3.49,1.55-3.49,3.46-3.49,3.46,1.57,3.46,3.49"/>
    <path class="cls-37" d="M126.17,50.2c0,1.78-1.43,3.22-3.2,3.22s-3.2-1.44-3.2-3.22,1.43-3.22,3.2-3.22,3.2,1.44,3.2,3.22"/>
    <path class="cls-16" d="M125.91,50.2c0,1.63-1.31,2.96-2.93,2.96s-2.93-1.32-2.93-2.96,1.31-2.96,2.93-2.96,2.93,1.32,2.93,2.96"/>
    <path class="cls-12" d="M125.64,50.2c0,1.48-1.2,2.69-2.67,2.69s-2.67-1.2-2.67-2.69,1.19-2.69,2.67-2.69,2.67,1.2,2.67,2.69"/>
    <path class="cls-15" d="M125.37,50.2c0,1.33-1.08,2.42-2.4,2.42s-2.4-1.08-2.4-2.42,1.07-2.42,2.4-2.42,2.4,1.08,2.4,2.42"/>
    <path class="cls-28" d="M125.11,50.2c0,1.19-.95,2.15-2.13,2.15s-2.13-.96-2.13-2.15.96-2.15,2.13-2.15,2.13.96,2.13,2.15"/>
    <path class="cls-33" d="M124.84,50.2c0,1.04-.84,1.88-1.87,1.88s-1.86-.84-1.86-1.88.83-1.88,1.86-1.88,1.87.84,1.87,1.88"/>
    <path class="cls-26" d="M124.57,50.2c0,.89-.72,1.61-1.6,1.61s-1.6-.72-1.6-1.61.72-1.61,1.6-1.61,1.6.72,1.6,1.61"/>
  </g>
  <path class="cls-31" d="M124.31,50.2c0,.74-.6,1.34-1.33,1.34s-1.33-.6-1.33-1.34.6-1.34,1.33-1.34,1.33.6,1.33,1.34"/>
  <path class="cls-29" d="M124.04,50.2c0,.59-.48,1.07-1.07,1.07s-1.07-.48-1.07-1.07.48-1.07,1.07-1.07,1.07.48,1.07,1.07"/>
  <path class="cls-13" d="M123.77,50.2c0,.45-.36.81-.8.81s-.8-.36-.8-.81.36-.81.8-.81.8.36.8.81"/>
  <path class="cls-20" d="M122.98,56.61c-3.51,0-6.37-2.88-6.37-6.41s2.86-6.41,6.37-6.41,6.37,2.88,6.37,6.41-2.86,6.41-6.37,6.41ZM122.98,44.45c-3.14,0-5.69,2.58-5.69,5.74s2.55,5.74,5.69,5.74,5.69-2.58,5.69-5.74-2.55-5.74-5.69-5.74Z"/>
  <g class="cls-23">
    <path class="cls-35" d="M191.81,98.83c0,4.74-3.82,8.6-8.53,8.6s-8.53-3.85-8.53-8.6,3.82-8.6,8.53-8.6,8.53,3.85,8.53,8.6"/>
    <path class="cls-3" d="M191.54,98.83c0,4.6-3.7,8.33-8.26,8.33s-8.26-3.73-8.26-8.33,3.7-8.33,8.26-8.33,8.26,3.73,8.26,8.33"/>
    <path class="cls-17" d="M191.27,98.83c0,4.45-3.58,8.06-7.99,8.06s-7.99-3.61-7.99-8.06,3.58-8.06,7.99-8.06,7.99,3.61,7.99,8.06"/>
    <path class="cls-30" d="M191.01,98.83c0,4.3-3.46,7.79-7.73,7.79s-7.73-3.49-7.73-7.79,3.46-7.79,7.73-7.79,7.73,3.49,7.73,7.79"/>
    <path class="cls-32" d="M190.74,98.83c0,4.15-3.34,7.52-7.46,7.52s-7.46-3.37-7.46-7.52,3.34-7.52,7.46-7.52,7.46,3.37,7.46,7.52"/>
    <path class="cls-27" d="M190.47,98.83c0,4-3.22,7.25-7.2,7.25s-7.19-3.25-7.19-7.25,3.22-7.25,7.19-7.25,7.2,3.25,7.2,7.25"/>
    <path class="cls-34" d="M190.21,98.83c0,3.85-3.1,6.98-6.93,6.98s-6.93-3.13-6.93-6.98,3.1-6.98,6.93-6.98,6.93,3.13,6.93,6.98"/>
    <path class="cls-5" d="M189.94,98.83c0,3.71-2.98,6.71-6.66,6.71s-6.66-3.01-6.66-6.71,2.98-6.72,6.66-6.72,6.66,3.01,6.66,6.72"/>
    <path class="cls-11" d="M189.67,98.83c0,3.56-2.86,6.45-6.39,6.45s-6.4-2.89-6.4-6.45,2.87-6.45,6.4-6.45,6.39,2.89,6.39,6.45"/>
    <path class="cls-24" d="M189.41,98.83c0,3.41-2.75,6.18-6.13,6.18s-6.13-2.77-6.13-6.18,2.75-6.18,6.13-6.18,6.13,2.77,6.13,6.18"/>
    <path class="cls-25" d="M189.14,98.83c0,3.26-2.63,5.91-5.86,5.91s-5.86-2.65-5.86-5.91,2.63-5.91,5.86-5.91,5.86,2.65,5.86,5.91"/>
    <path class="cls-10" d="M188.87,98.83c0,3.11-2.51,5.64-5.6,5.64s-5.6-2.53-5.6-5.64,2.51-5.64,5.6-5.64,5.6,2.53,5.6,5.64"/>
    <path class="cls-14" d="M188.61,98.83c0,2.96-2.39,5.37-5.33,5.37s-5.33-2.41-5.33-5.37,2.39-5.37,5.33-5.37,5.33,2.41,5.33,5.37"/>
    <path class="cls-4" d="M188.34,98.83c0,2.82-2.27,5.1-5.06,5.1s-5.06-2.29-5.06-5.1,2.27-5.1,5.06-5.1,5.06,2.29,5.06,5.1"/>
    <path class="cls-18" d="M188.08,98.83c0,2.67-2.15,4.84-4.8,4.84s-4.8-2.17-4.8-4.84,2.15-4.84,4.8-4.84,4.8,2.17,4.8,4.84"/>
    <path class="cls-21" d="M187.81,98.83c0,2.52-2.03,4.57-4.53,4.57s-4.53-2.04-4.53-4.57,2.03-4.57,4.53-4.57,4.53,2.05,4.53,4.57"/>
    <path class="cls-7" d="M187.54,98.83c0,2.37-1.91,4.3-4.26,4.3s-4.26-1.93-4.26-4.3,1.91-4.3,4.26-4.3,4.26,1.93,4.26,4.3"/>
    <path class="cls-2" d="M187.28,98.83c0,2.22-1.79,4.03-4,4.03s-4-1.81-4-4.03,1.79-4.03,4-4.03,4,1.8,4,4.03"/>
    <path class="cls-19" d="M187.01,98.83c0,2.08-1.67,3.76-3.73,3.76s-3.73-1.68-3.73-3.76,1.67-3.76,3.73-3.76,3.73,1.68,3.73,3.76"/>
    <path class="cls-6" d="M186.74,98.83c0,1.93-1.55,3.49-3.46,3.49s-3.46-1.56-3.46-3.49,1.55-3.49,3.46-3.49,3.46,1.56,3.46,3.49"/>
    <path class="cls-37" d="M186.48,98.83c0,1.78-1.43,3.22-3.2,3.22s-3.2-1.44-3.2-3.22,1.43-3.22,3.2-3.22,3.2,1.44,3.2,3.22"/>
    <path class="cls-16" d="M186.21,98.83c0,1.63-1.31,2.95-2.93,2.95s-2.93-1.32-2.93-2.95,1.31-2.96,2.93-2.96,2.93,1.32,2.93,2.96"/>
    <path class="cls-12" d="M185.94,98.83c0,1.48-1.2,2.69-2.67,2.69s-2.66-1.2-2.66-2.69,1.19-2.69,2.66-2.69,2.67,1.2,2.67,2.69"/>
    <path class="cls-15" d="M185.68,98.83c0,1.33-1.08,2.42-2.4,2.42s-2.4-1.08-2.4-2.42,1.07-2.42,2.4-2.42,2.4,1.08,2.4,2.42"/>
    <path class="cls-28" d="M185.41,98.83c0,1.19-.95,2.15-2.13,2.15s-2.13-.96-2.13-2.15.96-2.15,2.13-2.15,2.13.96,2.13,2.15"/>
    <path class="cls-33" d="M185.14,98.83c0,1.04-.84,1.88-1.87,1.88s-1.87-.84-1.87-1.88.84-1.88,1.87-1.88,1.87.84,1.87,1.88"/>
    <path class="cls-26" d="M184.88,98.83c0,.89-.72,1.61-1.6,1.61s-1.6-.72-1.6-1.61.72-1.61,1.6-1.61,1.6.72,1.6,1.61"/>
  </g>
  <path class="cls-31" d="M184.61,98.83c0,.74-.6,1.34-1.33,1.34s-1.33-.6-1.33-1.34.6-1.34,1.33-1.34,1.33.6,1.33,1.34"/>
  <path class="cls-29" d="M184.34,98.83c0,.59-.48,1.07-1.07,1.07s-1.07-.48-1.07-1.07.48-1.07,1.07-1.07,1.07.48,1.07,1.07"/>
  <path class="cls-13" d="M184.08,98.83c0,.45-.36.8-.8.8s-.8-.36-.8-.8.36-.81.8-.81.8.36.8.81"/>
  <path class="cls-20" d="M183.28,105.24c-3.51,0-6.37-2.88-6.37-6.42s2.86-6.41,6.37-6.41,6.37,2.88,6.37,6.41-2.86,6.42-6.37,6.42ZM183.28,93.08c-3.14,0-5.69,2.58-5.69,5.74s2.55,5.74,5.69,5.74,5.69-2.58,5.69-5.74-2.55-5.74-5.69-5.74Z"/>
  <g>
    <g>
      <path class="cls-9" d="M168.34,113.64c-.01.1-.03.22-.06.34-.03.12-.07.24-.13.36s-.13.24-.22.35c-.09.11-.2.21-.33.29s-.28.15-.46.21c-.18.05-.38.08-.6.08-.12,0-.25-.02-.39-.05-.14-.03-.27-.08-.4-.15-.13-.07-.25-.16-.37-.28-.12-.11-.22-.25-.31-.42s-.16-.36-.21-.58c-.05-.22-.08-.47-.08-.76,0-.35.05-.67.15-.95s.23-.52.4-.71c.17-.2.36-.35.58-.45.22-.11.45-.16.7-.16.22,0,.41.02.58.07.17.05.32.11.44.19s.23.17.32.28c.09.1.16.21.21.33.05.11.09.23.12.35.03.12.05.23.05.34h-.68c-.04-.29-.13-.51-.3-.68-.16-.16-.39-.25-.68-.25-.2,0-.37.04-.52.12-.15.08-.27.2-.37.34-.1.15-.17.32-.22.53-.05.21-.07.43-.07.68,0,.28.03.52.08.72.05.2.13.37.22.5s.21.23.36.29c.14.06.3.09.48.09.13,0,.25-.02.36-.07s.21-.11.3-.2c.09-.09.17-.2.23-.33.06-.13.11-.28.13-.44h.68Z"/>
      <path class="cls-9" d="M170.17,111.52h-1.45v-.63h3.62v.63h-1.45v3.6h-.72v-3.6Z"/>
      <path class="cls-9" d="M173.07,112.16c0-.26.06-.48.14-.66.09-.18.21-.32.36-.43.15-.11.33-.19.54-.24.21-.05.44-.07.68-.07.2,0,.4.02.59.06.19.04.36.11.51.2s.27.21.36.36c.09.15.14.33.14.54v2.46c0,.07.02.13.05.18s.1.07.18.07c.04,0,.07,0,.11,0,.04,0,.08-.01.12-.02v.5c-.06.02-.12.03-.18.04-.06.01-.13.02-.21.02-.12,0-.23-.01-.32-.03-.09-.02-.17-.06-.23-.1s-.11-.11-.14-.19c-.03-.08-.06-.17-.07-.29-.09.1-.18.19-.28.27s-.21.16-.33.22c-.12.06-.26.11-.41.15s-.32.05-.51.05c-.16,0-.32-.03-.47-.08s-.29-.13-.41-.23c-.12-.1-.22-.23-.29-.38-.07-.15-.11-.33-.11-.53,0-.22.04-.41.11-.57.07-.16.17-.29.29-.4.12-.11.25-.19.4-.25.15-.06.31-.1.46-.12l1.18-.15c.11-.01.2-.06.27-.13.06-.08.1-.2.1-.36,0-.26-.08-.44-.25-.55-.17-.11-.41-.17-.72-.17s-.56.07-.71.2c-.16.14-.25.34-.27.61h-.67ZM175.67,112.97c-.06.04-.13.08-.21.1s-.18.05-.28.07c-.1.02-.21.04-.33.05-.12.01-.23.03-.35.04-.13.02-.25.04-.36.08-.11.03-.21.08-.29.13s-.14.12-.19.2c-.04.08-.07.17-.07.27,0,.12.02.23.06.32.04.09.09.17.16.23.07.06.15.11.24.14.09.03.2.05.31.05.07,0,.15,0,.24-.03.09-.02.19-.04.28-.08s.19-.08.29-.13c.09-.05.18-.12.25-.2.07-.08.13-.16.18-.26.04-.1.07-.21.07-.33v-.68Z"/>
      <path class="cls-9" d="M180.81,109.26s-.01.09-.02.14c0,.06-.03.12-.05.18s-.06.13-.11.19c-.05.06-.11.12-.18.18-.04.03-.08.05-.11.08s-.08.04-.13.06c-.05.02-.12.03-.2.04s-.19.02-.33.02h-.3c-.2.01-.39.06-.55.13-.16.08-.31.19-.43.32-.12.14-.23.31-.31.5-.08.2-.14.41-.18.65.05-.11.12-.21.2-.31s.18-.19.3-.27.26-.15.42-.19.35-.07.57-.07c.24,0,.47.04.69.13s.41.22.57.39c.16.17.29.39.39.65s.15.56.15.9c0,.11,0,.24-.02.39s-.05.32-.09.48-.11.34-.2.5-.2.32-.35.45-.32.24-.53.32-.46.12-.75.12c-.12,0-.25,0-.38-.03-.14-.02-.27-.06-.41-.11s-.27-.13-.39-.22-.24-.22-.35-.36c-.05-.07-.1-.16-.16-.25-.05-.1-.1-.21-.14-.35-.04-.14-.08-.3-.1-.49-.03-.19-.04-.41-.04-.67,0-.17,0-.36.02-.57.02-.21.04-.43.08-.65s.09-.44.16-.64c.07-.21.15-.39.25-.54.11-.17.23-.31.35-.41s.25-.19.38-.25c.14-.06.28-.1.44-.13s.33-.04.51-.05h.25c.08-.01.16-.01.21-.02s.11-.02.15-.03c.04-.02.07-.04.09-.07.02-.03.04-.08.06-.13h.55ZM178.02,113.09c0,.08,0,.17.01.28,0,.11.03.22.06.34.03.12.07.23.12.35s.13.22.22.31c.09.09.2.17.34.22s.29.08.48.08c.21,0,.38-.03.52-.1s.26-.15.35-.26c.09-.11.16-.22.21-.35.05-.13.08-.26.11-.38.02-.12.04-.24.04-.34s0-.18,0-.23c0-.19-.02-.38-.07-.57-.04-.18-.11-.35-.21-.49-.09-.14-.22-.26-.37-.34-.15-.09-.34-.13-.56-.13s-.4.04-.56.13-.29.2-.39.35c-.1.15-.18.32-.23.51-.05.19-.08.4-.08.62Z"/>
      <path class="cls-9" d="M182.02,110.89h.72v3.25h.02l2.06-3.25h.83v4.24h-.73v-3.25h-.02l-2.06,3.25h-.83v-4.24Z"/>
      <path class="cls-9" d="M189.54,111.52h-1.61l-.03,1.02c-.02.51-.05.94-.12,1.29-.06.34-.15.62-.26.83-.11.21-.24.36-.39.44-.15.09-.33.13-.53.13-.07,0-.14-.01-.19-.03s-.09-.05-.12-.07v-.64c.1.04.19.06.27.06.05,0,.11,0,.16-.03.05-.02.1-.05.14-.11.05-.05.09-.13.13-.22.04-.1.07-.22.1-.38.03-.16.05-.34.07-.57s.03-.49.04-.79l.04-1.56h3.02v4.24h-.72v-3.6Z"/>
      <path class="cls-9" d="M191.33,110.89h.72v1.59h1.17c.23,0,.44.03.62.09.18.06.33.15.46.27.13.11.22.25.29.42.07.16.1.35.1.55s-.03.39-.1.55c-.07.16-.16.3-.29.42-.13.12-.28.2-.46.26s-.39.09-.62.09h-1.89v-4.24ZM192.05,114.55h1.03c.12,0,.24-.01.35-.04.11-.03.2-.07.28-.13s.14-.14.18-.23c.04-.09.07-.21.07-.34s-.02-.24-.07-.34c-.05-.09-.11-.17-.19-.23-.08-.06-.18-.1-.3-.13-.12-.03-.25-.04-.39-.04h-.96v1.48Z"/>
      <path class="cls-9" d="M195.34,110.89h.72v1.71h1.96v-1.71h.73v4.24h-.73v-1.9h-1.96v1.9h-.72v-4.24Z"/>
      <path class="cls-9" d="M203.47,113c0,.35-.04.66-.13.94s-.22.52-.38.71c-.17.2-.37.34-.61.45-.24.1-.52.16-.82.16s-.58-.05-.82-.16c-.24-.1-.44-.25-.61-.45-.17-.2-.3-.43-.38-.71s-.13-.59-.13-.94.04-.65.13-.93c.09-.28.22-.51.38-.71.17-.2.37-.35.61-.45.24-.1.51-.16.82-.16s.58.05.82.16c.24.1.45.25.61.45.17.19.3.43.38.71.09.28.13.59.13.93ZM202.75,113c0-.23-.03-.45-.08-.65-.05-.2-.13-.37-.24-.51s-.23-.25-.39-.33c-.15-.08-.33-.12-.53-.12s-.38.04-.53.12c-.15.08-.28.19-.38.33s-.18.31-.24.51c-.05.2-.08.41-.08.65s.03.46.08.66c.05.2.13.37.24.51.1.14.23.25.38.33.15.08.33.12.53.12s.38-.04.53-.12c.15-.08.28-.19.39-.33.1-.14.18-.31.24-.51.05-.2.08-.42.08-.66Z"/>
      <path class="cls-9" d="M207.86,113.78c-.03.18-.09.37-.19.54s-.22.33-.38.48c-.16.14-.34.25-.56.34-.21.09-.45.13-.71.13-.28,0-.54-.05-.78-.14-.24-.09-.45-.24-.62-.42-.17-.19-.31-.42-.41-.71s-.15-.62-.15-1c0-.26.03-.49.08-.7.06-.21.13-.4.23-.56s.21-.31.33-.43c.13-.12.26-.22.4-.3.14-.08.28-.14.43-.17s.29-.06.42-.06c.29,0,.55.04.79.13s.44.22.62.4c.17.18.3.4.4.67.09.27.14.58.14.94v.36h-3.07c0,.21.03.39.09.56.05.17.13.31.24.43.1.12.23.21.37.28s.31.1.49.1.34-.03.47-.08.24-.12.32-.2c.09-.08.16-.17.21-.27s.1-.2.13-.3h.7ZM207.19,112.68c0-.21-.04-.39-.09-.55-.06-.16-.13-.3-.24-.41s-.22-.19-.36-.25-.3-.08-.47-.08-.32.03-.46.1-.26.15-.37.27c-.1.11-.19.25-.25.41s-.1.33-.11.52h2.35Z"/>
    </g>
    <g>
      <path class="cls-9" d="M41.87,113.64c-.01.1-.03.22-.06.34-.03.12-.07.24-.13.36s-.13.24-.22.35c-.09.11-.2.21-.33.29s-.28.15-.46.21c-.18.05-.38.08-.6.08-.12,0-.25-.02-.39-.05-.14-.03-.27-.08-.4-.15-.13-.07-.25-.16-.37-.28-.12-.11-.22-.25-.31-.42s-.16-.36-.21-.58c-.05-.22-.08-.47-.08-.76,0-.35.05-.67.15-.95s.23-.52.4-.71c.17-.2.36-.35.58-.45.22-.11.45-.16.7-.16.22,0,.41.02.58.07.17.05.32.11.44.19s.23.17.32.28c.09.1.16.21.21.33.05.11.09.23.12.35.03.12.05.23.05.34h-.68c-.04-.29-.13-.51-.3-.68-.16-.16-.39-.25-.68-.25-.2,0-.37.04-.52.12-.15.08-.27.2-.37.34-.1.15-.17.32-.22.53-.05.21-.07.43-.07.68,0,.28.03.52.08.72.05.2.13.37.22.5s.21.23.36.29c.14.06.3.09.48.09.13,0,.25-.02.36-.07s.21-.11.3-.2c.09-.09.17-.2.23-.33.06-.13.11-.28.13-.44h.68Z"/>
      <path class="cls-9" d="M43.71,111.52h-1.45v-.63h3.62v.63h-1.45v3.6h-.72v-3.6Z"/>
      <path class="cls-9" d="M46.6,112.16c0-.26.06-.48.14-.66.09-.18.21-.32.36-.43.15-.11.33-.19.54-.24.21-.05.44-.07.68-.07.2,0,.4.02.59.06.19.04.36.11.51.2s.27.21.36.36c.09.15.14.33.14.54v2.46c0,.07.02.13.05.18s.1.07.18.07c.04,0,.07,0,.11,0,.04,0,.08-.01.12-.02v.5c-.06.02-.12.03-.18.04-.06.01-.13.02-.21.02-.12,0-.23-.01-.32-.03-.09-.02-.17-.06-.23-.1s-.11-.11-.14-.19c-.03-.08-.06-.17-.07-.29-.09.1-.18.19-.28.27s-.21.16-.33.22c-.12.06-.26.11-.41.15s-.32.05-.51.05c-.16,0-.32-.03-.47-.08s-.29-.13-.41-.23c-.12-.1-.22-.23-.29-.38-.07-.15-.11-.33-.11-.53,0-.22.04-.41.11-.57.07-.16.17-.29.29-.4.12-.11.25-.19.4-.25.15-.06.31-.1.46-.12l1.18-.15c.11-.01.2-.06.27-.13.06-.08.1-.2.1-.36,0-.26-.08-.44-.25-.55-.17-.11-.41-.17-.72-.17s-.56.07-.71.2c-.16.14-.25.34-.27.61h-.67ZM49.21,112.97c-.06.04-.13.08-.21.1s-.18.05-.28.07c-.1.02-.21.04-.33.05-.12.01-.23.03-.35.04-.13.02-.25.04-.36.08-.11.03-.21.08-.29.13s-.14.12-.19.2c-.04.08-.07.17-.07.27,0,.12.02.23.06.32.04.09.09.17.16.23.07.06.15.11.24.14.09.03.2.05.31.05.07,0,.15,0,.24-.03.09-.02.19-.04.28-.08s.19-.08.29-.13c.09-.05.18-.12.25-.2.07-.08.13-.16.18-.26.04-.1.07-.21.07-.33v-.68Z"/>
      <path class="cls-9" d="M54.34,109.26s-.01.09-.02.14c0,.06-.03.12-.05.18s-.06.13-.11.19c-.05.06-.11.12-.18.18-.04.03-.08.05-.11.08s-.08.04-.13.06c-.05.02-.12.03-.2.04s-.19.02-.33.02h-.3c-.2.01-.39.06-.55.13-.16.08-.31.19-.43.32-.12.14-.23.31-.31.5-.08.2-.14.41-.18.65.05-.11.12-.21.2-.31s.18-.19.3-.27.26-.15.42-.19.35-.07.57-.07c.24,0,.47.04.69.13s.41.22.57.39c.16.17.29.39.39.65s.15.56.15.9c0,.11,0,.24-.02.39s-.05.32-.09.48-.11.34-.2.5-.2.32-.35.45-.32.24-.53.32-.46.12-.75.12c-.12,0-.25,0-.38-.03-.14-.02-.27-.06-.41-.11s-.27-.13-.39-.22-.24-.22-.35-.36c-.05-.07-.1-.16-.16-.25-.05-.1-.1-.21-.14-.35-.04-.14-.08-.3-.1-.49-.03-.19-.04-.41-.04-.67,0-.17,0-.36.02-.57.02-.21.04-.43.08-.65s.09-.44.16-.64c.07-.21.15-.39.25-.54.11-.17.23-.31.35-.41s.25-.19.38-.25c.14-.06.28-.1.44-.13s.33-.04.51-.05h.25c.08-.01.16-.01.21-.02s.11-.02.15-.03c.04-.02.07-.04.09-.07.02-.03.04-.08.06-.13h.55ZM51.55,113.09c0,.08,0,.17.01.28,0,.11.03.22.06.34.03.12.07.23.12.35s.13.22.22.31c.09.09.2.17.34.22s.29.08.48.08c.21,0,.38-.03.52-.1s.26-.15.35-.26c.09-.11.16-.22.21-.35.05-.13.08-.26.11-.38.02-.12.04-.24.04-.34s0-.18,0-.23c0-.19-.02-.38-.07-.57-.04-.18-.11-.35-.21-.49-.09-.14-.22-.26-.37-.34-.15-.09-.34-.13-.56-.13s-.4.04-.56.13-.29.2-.39.35c-.1.15-.18.32-.23.51-.05.19-.08.4-.08.62Z"/>
      <path class="cls-9" d="M55.55,110.89h.72v3.25h.02l2.06-3.25h.83v4.24h-.73v-3.25h-.02l-2.06,3.25h-.83v-4.24Z"/>
      <path class="cls-9" d="M63.07,111.52h-1.61l-.03,1.02c-.02.51-.05.94-.12,1.29-.06.34-.15.62-.26.83-.11.21-.24.36-.39.44-.15.09-.33.13-.53.13-.07,0-.14-.01-.19-.03s-.09-.05-.12-.07v-.64c.1.04.19.06.27.06.05,0,.11,0,.16-.03.05-.02.1-.05.14-.11.05-.05.09-.13.13-.22.04-.1.07-.22.1-.38.03-.16.05-.34.07-.57s.03-.49.04-.79l.04-1.56h3.02v4.24h-.72v-3.6Z"/>
      <path class="cls-9" d="M64.86,110.89h.72v1.59h1.17c.23,0,.44.03.62.09.18.06.33.15.46.27.13.11.22.25.29.42.07.16.1.35.1.55s-.03.39-.1.55c-.07.16-.16.3-.29.42-.13.12-.28.2-.46.26s-.39.09-.62.09h-1.89v-4.24ZM65.58,114.55h1.03c.12,0,.24-.01.35-.04.11-.03.2-.07.28-.13s.14-.14.18-.23c.04-.09.07-.21.07-.34s-.02-.24-.07-.34c-.05-.09-.11-.17-.19-.23-.08-.06-.18-.1-.3-.13-.12-.03-.25-.04-.39-.04h-.96v1.48Z"/>
      <path class="cls-9" d="M68.88,110.89h.72v1.71h1.96v-1.71h.73v4.24h-.73v-1.9h-1.96v1.9h-.72v-4.24Z"/>
      <path class="cls-9" d="M77.01,113c0,.35-.04.66-.13.94s-.22.52-.38.71c-.17.2-.37.34-.61.45-.24.1-.52.16-.82.16s-.58-.05-.82-.16c-.24-.1-.44-.25-.61-.45-.17-.2-.3-.43-.38-.71s-.13-.59-.13-.94.04-.65.13-.93c.09-.28.22-.51.38-.71.17-.2.37-.35.61-.45.24-.1.51-.16.82-.16s.58.05.82.16c.24.1.45.25.61.45.17.19.3.43.38.71.09.28.13.59.13.93ZM76.28,113c0-.23-.03-.45-.08-.65-.05-.2-.13-.37-.24-.51s-.23-.25-.39-.33c-.15-.08-.33-.12-.53-.12s-.38.04-.53.12c-.15.08-.28.19-.38.33s-.18.31-.24.51c-.05.2-.08.41-.08.65s.03.46.08.66c.05.2.13.37.24.51.1.14.23.25.38.33.15.08.33.12.53.12s.38-.04.53-.12c.15-.08.28-.19.39-.33.1-.14.18-.31.24-.51.05-.2.08-.42.08-.66Z"/>
      <path class="cls-9" d="M81.4,113.78c-.03.18-.09.37-.19.54s-.22.33-.38.48c-.16.14-.34.25-.56.34-.21.09-.45.13-.71.13-.28,0-.54-.05-.78-.14-.24-.09-.45-.24-.62-.42-.17-.19-.31-.42-.41-.71s-.15-.62-.15-1c0-.26.03-.49.08-.7.06-.21.13-.4.23-.56s.21-.31.33-.43c.13-.12.26-.22.4-.3.14-.08.28-.14.43-.17s.29-.06.42-.06c.29,0,.55.04.79.13s.44.22.62.4c.17.18.3.4.4.67.09.27.14.58.14.94v.36h-3.07c0,.21.03.39.09.56.05.17.13.31.24.43.1.12.23.21.37.28s.31.1.49.1.34-.03.47-.08.24-.12.32-.2c.09-.08.16-.17.21-.27s.1-.2.13-.3h.7ZM80.72,112.68c0-.21-.04-.39-.09-.55-.06-.16-.13-.3-.24-.41s-.22-.19-.36-.25-.3-.08-.47-.08-.32.03-.46.1-.26.15-.37.27c-.1.11-.19.25-.25.41s-.1.33-.11.52h2.35Z"/>
    </g>
  </g>
  <g>
    <path class="cls-9" d="M92.48,35.25h1.05l1.11,3.47h.02l1.13-3.47h.99v4.24h-.68v-3.41h-.02l-1.11,3.41h-.69l-1.11-3.41h-.02v3.41h-.67v-4.24Z"/>
    <path class="cls-9" d="M101.42,38.14c-.03.18-.09.37-.19.54s-.22.33-.38.48c-.16.14-.34.25-.56.34-.21.09-.45.13-.71.13-.28,0-.54-.05-.78-.14-.24-.09-.45-.24-.62-.42-.17-.19-.31-.42-.41-.71s-.15-.62-.15-1c0-.26.03-.49.08-.7.06-.21.13-.4.23-.56s.21-.31.33-.43c.13-.12.26-.22.4-.3.14-.08.28-.14.43-.17s.29-.06.42-.06c.29,0,.55.04.79.13s.44.22.62.4c.17.18.3.4.4.67.09.27.14.58.14.94v.36h-3.07c0,.21.03.39.09.56.05.17.13.31.24.43.1.12.23.21.37.28s.31.1.49.1.34-.03.47-.08.24-.12.32-.2c.09-.08.16-.17.21-.27s.1-.2.13-.3h.7ZM100.74,37.05c0-.21-.04-.39-.09-.55-.06-.16-.13-.3-.24-.41s-.22-.19-.36-.25-.3-.08-.47-.08-.32.03-.46.1-.26.15-.37.27c-.1.11-.19.25-.25.41s-.1.33-.11.52h2.35Z"/>
    <path class="cls-9" d="M103.43,35.89h-1.45v-.63h3.62v.63h-1.45v3.6h-.72v-3.6Z"/>
    <path class="cls-9" d="M106.32,36.52c0-.26.06-.48.14-.66.09-.18.21-.32.36-.43.15-.11.33-.19.54-.24.21-.05.44-.07.68-.07.2,0,.4.02.59.06.19.04.36.11.51.2s.27.21.36.36c.09.15.14.33.14.54v2.46c0,.07.02.13.05.18s.1.07.18.07c.04,0,.07,0,.11,0,.04,0,.08-.01.12-.02v.5c-.06.02-.12.03-.18.04-.06.01-.13.02-.21.02-.12,0-.23-.01-.32-.03-.09-.02-.17-.06-.23-.1s-.11-.11-.14-.19c-.03-.08-.06-.17-.07-.29-.09.1-.18.19-.28.27s-.21.16-.33.22c-.12.06-.26.11-.41.15s-.32.05-.51.05c-.16,0-.32-.03-.47-.08s-.29-.13-.41-.23c-.12-.1-.22-.23-.29-.38-.07-.15-.11-.33-.11-.53,0-.22.04-.41.11-.57.07-.16.17-.29.29-.4.12-.11.25-.19.4-.25.15-.06.31-.1.46-.12l1.18-.15c.11-.01.2-.06.27-.13.06-.08.1-.2.1-.36,0-.26-.08-.44-.25-.55-.17-.11-.41-.17-.72-.17s-.56.07-.71.2c-.16.14-.25.34-.27.61h-.67ZM108.93,37.34c-.06.04-.13.08-.21.1s-.18.05-.28.07c-.1.02-.21.04-.33.05-.12.01-.23.03-.35.04-.13.02-.25.04-.36.08-.11.03-.21.08-.29.13s-.14.12-.19.2c-.04.08-.07.17-.07.27,0,.12.02.23.06.32.04.09.09.17.16.23.07.06.15.11.24.14.09.03.2.05.31.05.07,0,.15,0,.24-.03.09-.02.19-.04.28-.08s.19-.08.29-.13c.09-.05.18-.12.25-.2.07-.08.13-.16.18-.26.04-.1.07-.21.07-.33v-.68Z"/>
    <path class="cls-9" d="M114.11,38c-.01.1-.03.22-.06.34-.03.12-.07.24-.13.36s-.13.24-.22.35c-.09.11-.2.21-.33.29s-.28.15-.46.21c-.18.05-.38.08-.6.08-.12,0-.25-.02-.39-.05-.14-.03-.27-.08-.4-.15-.13-.07-.25-.16-.37-.28-.12-.11-.22-.25-.31-.42s-.16-.36-.21-.58c-.05-.22-.08-.47-.08-.76,0-.35.05-.67.15-.95s.23-.52.4-.71c.17-.2.36-.35.58-.45.22-.11.45-.16.7-.16.22,0,.41.02.58.07.17.05.32.11.44.19s.23.17.32.28c.09.1.16.21.21.33.05.11.09.23.12.35.03.12.05.23.05.34h-.68c-.04-.29-.13-.51-.3-.68-.16-.16-.39-.25-.68-.25-.2,0-.37.04-.52.12-.15.08-.27.2-.37.34-.1.15-.17.32-.22.53-.05.21-.07.43-.07.68,0,.28.03.52.08.72.05.2.13.37.22.5s.21.23.36.29c.14.06.3.09.48.09.13,0,.25-.02.36-.07s.21-.11.3-.2c.09-.09.17-.2.23-.33.06-.13.11-.28.13-.44h.68Z"/>
    <path class="cls-9" d="M115.94,35.89h-1.45v-.63h3.62v.63h-1.45v3.6h-.72v-3.6Z"/>
    <path class="cls-9" d="M118.84,36.52c0-.26.06-.48.14-.66.09-.18.21-.32.36-.43.15-.11.33-.19.54-.24.21-.05.44-.07.68-.07.2,0,.4.02.59.06.19.04.36.11.51.2s.27.21.36.36c.09.15.14.33.14.54v2.46c0,.07.02.13.05.18s.1.07.18.07c.04,0,.07,0,.11,0,.04,0,.08-.01.12-.02v.5c-.06.02-.12.03-.18.04-.06.01-.13.02-.21.02-.12,0-.23-.01-.32-.03-.09-.02-.17-.06-.23-.1s-.11-.11-.14-.19c-.03-.08-.06-.17-.07-.29-.09.1-.18.19-.28.27s-.21.16-.33.22c-.12.06-.26.11-.41.15s-.32.05-.51.05c-.16,0-.32-.03-.47-.08s-.29-.13-.41-.23c-.12-.1-.22-.23-.29-.38-.07-.15-.11-.33-.11-.53,0-.22.04-.41.11-.57.07-.16.17-.29.29-.4.12-.11.25-.19.4-.25.15-.06.31-.1.46-.12l1.18-.15c.11-.01.2-.06.27-.13.06-.08.1-.2.1-.36,0-.26-.08-.44-.25-.55-.17-.11-.41-.17-.72-.17s-.56.07-.71.2c-.16.14-.25.34-.27.61h-.67ZM121.44,37.34c-.06.04-.13.08-.21.1s-.18.05-.28.07c-.1.02-.21.04-.33.05-.12.01-.23.03-.35.04-.13.02-.25.04-.36.08-.11.03-.21.08-.29.13s-.14.12-.19.2c-.04.08-.07.17-.07.27,0,.12.02.23.06.32.04.09.09.17.16.23.07.06.15.11.24.14.09.03.2.05.31.05.07,0,.15,0,.24-.03.09-.02.19-.04.28-.08s.19-.08.29-.13c.09-.05.18-.12.25-.2.07-.08.13-.16.18-.26.04-.1.07-.21.07-.33v-.68Z"/>
    <path class="cls-9" d="M126.58,33.62s-.01.09-.02.14c0,.06-.03.12-.05.18s-.06.13-.11.19c-.05.06-.11.12-.18.18-.04.03-.08.05-.11.08s-.08.04-.13.06c-.05.02-.12.03-.2.04s-.19.02-.33.02h-.3c-.2.01-.39.06-.55.13-.16.08-.31.19-.43.32-.12.14-.23.31-.31.5-.08.2-.14.41-.18.65.05-.11.12-.21.2-.31s.18-.19.3-.27.26-.15.42-.19.35-.07.57-.07c.24,0,.47.04.69.13s.41.22.57.39c.16.17.29.39.39.65s.15.56.15.9c0,.11,0,.24-.02.39s-.05.32-.09.48-.11.34-.2.5-.2.32-.35.45-.32.24-.53.32-.46.12-.75.12c-.12,0-.25,0-.38-.03-.14-.02-.27-.06-.41-.11s-.27-.13-.39-.22-.24-.22-.35-.36c-.05-.07-.1-.16-.16-.25-.05-.1-.1-.21-.14-.35-.04-.14-.08-.3-.1-.49-.03-.19-.04-.41-.04-.67,0-.17,0-.36.02-.57.02-.21.04-.43.08-.65s.09-.44.16-.64c.07-.21.15-.39.25-.54.11-.17.23-.31.35-.41s.25-.19.38-.25c.14-.06.28-.1.44-.13s.33-.04.51-.05h.25c.08-.01.16-.01.21-.02s.11-.02.15-.03c.04-.02.07-.04.09-.07.02-.03.04-.08.06-.13h.55ZM123.79,37.45c0,.08,0,.17.01.28,0,.11.03.22.06.34.03.12.07.23.12.35s.13.22.22.31c.09.09.2.17.34.22s.29.08.48.08c.21,0,.38-.03.52-.1s.26-.15.35-.26c.09-.11.16-.22.21-.35.05-.13.08-.26.11-.38.02-.12.04-.24.04-.34s0-.18,0-.23c0-.19-.02-.38-.07-.57-.04-.18-.11-.35-.21-.49-.09-.14-.22-.26-.37-.34-.15-.09-.34-.13-.56-.13s-.4.04-.56.13-.29.2-.39.35c-.1.15-.18.32-.23.51-.05.19-.08.4-.08.62Z"/>
    <path class="cls-9" d="M127.79,35.25h.72v3.25h.02l2.06-3.25h.83v4.24h-.73v-3.25h-.02l-2.06,3.25h-.83v-4.24Z"/>
    <path class="cls-9" d="M135.31,35.89h-1.61l-.03,1.02c-.02.51-.05.94-.12,1.29-.06.34-.15.62-.26.83-.11.21-.24.36-.39.44-.15.09-.33.13-.53.13-.07,0-.14-.01-.19-.03s-.09-.05-.12-.07v-.64c.1.04.19.06.27.06.05,0,.11,0,.16-.03.05-.02.1-.05.14-.11.05-.05.09-.13.13-.22.04-.1.07-.22.1-.38.03-.16.05-.34.07-.57s.03-.49.04-.79l.04-1.56h3.02v4.24h-.72v-3.6Z"/>
    <path class="cls-9" d="M137.1,35.25h.72v1.59h1.17c.23,0,.44.03.62.09.18.06.33.15.46.27.13.11.22.25.29.42.07.16.1.35.1.55s-.03.39-.1.55c-.07.16-.16.3-.29.42-.13.12-.28.2-.46.26s-.39.09-.62.09h-1.89v-4.24ZM137.82,38.91h1.03c.12,0,.24-.01.35-.04.11-.03.2-.07.28-.13s.14-.14.18-.23c.04-.09.07-.21.07-.34s-.02-.24-.07-.34c-.05-.09-.11-.17-.19-.23-.08-.06-.18-.1-.3-.13-.12-.03-.25-.04-.39-.04h-.96v1.48Z"/>
    <path class="cls-9" d="M141.11,35.25h.72v1.71h1.96v-1.71h.73v4.24h-.73v-1.9h-1.96v1.9h-.72v-4.24Z"/>
    <path class="cls-9" d="M149.24,37.37c0,.35-.04.66-.13.94s-.22.52-.38.71c-.17.2-.37.34-.61.45-.24.1-.52.16-.82.16s-.58-.05-.82-.16c-.24-.1-.44-.25-.61-.45-.17-.2-.3-.43-.38-.71s-.13-.59-.13-.94.04-.65.13-.93c.09-.28.22-.51.38-.71.17-.2.37-.35.61-.45.24-.1.51-.16.82-.16s.58.05.82.16c.24.1.45.25.61.45.17.19.3.43.38.71.09.28.13.59.13.93ZM148.52,37.37c0-.23-.03-.45-.08-.65-.05-.2-.13-.37-.24-.51s-.23-.25-.39-.33c-.15-.08-.33-.12-.53-.12s-.38.04-.53.12c-.15.08-.28.19-.38.33s-.18.31-.24.51c-.05.2-.08.41-.08.65s.03.46.08.66c.05.2.13.37.24.51.1.14.23.25.38.33.15.08.33.12.53.12s.38-.04.53-.12c.15-.08.28-.19.39-.33.1-.14.18-.31.24-.51.05-.2.08-.42.08-.66Z"/>
    <path class="cls-9" d="M153.63,38.14c-.03.18-.09.37-.19.54s-.22.33-.38.48c-.16.14-.34.25-.56.34-.21.09-.45.13-.71.13-.28,0-.54-.05-.78-.14-.24-.09-.45-.24-.62-.42-.17-.19-.31-.42-.41-.71s-.15-.62-.15-1c0-.26.03-.49.08-.7.06-.21.13-.4.23-.56s.21-.31.33-.43c.13-.12.26-.22.4-.3.14-.08.28-.14.43-.17s.29-.06.42-.06c.29,0,.55.04.79.13s.44.22.62.4c.17.18.3.4.4.67.09.27.14.58.14.94v.36h-3.07c0,.21.03.39.09.56.05.17.13.31.24.43.1.12.23.21.37.28s.31.1.49.1.34-.03.47-.08.24-.12.32-.2c.09-.08.16-.17.21-.27s.1-.2.13-.3h.7ZM152.96,37.05c0-.21-.04-.39-.09-.55-.06-.16-.13-.3-.24-.41s-.22-.19-.36-.25-.3-.08-.47-.08-.32.03-.46.1-.26.15-.37.27c-.1.11-.19.25-.25.41s-.1.33-.11.52h2.35Z"/>
  </g>
  <path class="cls-9" d="M207.89,106.17h-24.62c-16.21,0-28.54-8.27-36.63-24.59-7.91-15.95-15.88-24.03-23.67-24.03s-15.76,8.09-23.67,24.03c-8.09,16.32-20.42,24.59-36.63,24.59h-24.63v-13.17h1.01v12.16h23.62c15.8,0,27.82-8.09,35.73-24.03,8.09-16.32,16.36-24.59,24.57-24.59s16.48,8.27,24.57,24.59c7.91,15.95,19.93,24.03,35.73,24.03h23.61v-12.16h1.01v13.17Z"/>
</svg>