<?xml version="1.0" encoding="UTF-8"?>
<svg id="Vector_layer-4" data-name="Vector layer" xmlns="http://www.w3.org/2000/svg" viewBox="0 0 860.34 937.64">
  <defs>
    <style>
      .cls-1 {
        stroke-width: 0px;
      }
    </style>
  </defs>
  <path class="cls-1" d="M487.06,103.98c4.78,5.14,11.16,8.76,18.21,9.17h.36c11.93,0,24.21-4.38,32.36-13.29,6.8-7.3,9.87-18.69,5.74-28.05-3.19-7.23-9.61-12.3-16.83-15.39-5.42-5.61-13.14-9.11-20.68-10.63-14.32-2.67-31.65,3.63-36.99,18.06-2.66,7.02-3.07,14.92-.41,22,3.23,8.07,9.96,15.24,18.23,18.14ZM528.59,99.43c-5.81,4.73-13.38,7.2-20.92,7.48-3.1.14-6.06-.56-8.77-1.84,10.3-1.04,20.4-5.35,27.42-13.03,5.67-6.09,8.73-15.02,7.2-23.24,1.25,1.4,2.33,2.96,3.17,4.68,4.15,9.26-.75,19.86-8.1,25.96ZM474.42,66.41c3.7-9.91,14.07-14.63,24.64-14.63,10.64,0,21.49,4.78,25.96,13.86,4.15,9.26-.75,19.86-8.1,25.96-5.81,4.73-13.39,7.2-20.93,7.47-9.27.42-17.22-6.55-21.26-14.41-2.58-5.78-2.62-12.38-.31-18.25Z"/>
  <path class="cls-1" d="M716.95,277.19c6.03,6.58,15.14,10.07,24.08,10.39,1.31.04,2.64.07,3.98.07,18.22,0,38.52-4.38,41.97-25.37,3.39-16.57-5.08-30.2-19.34-36.08-4.95-5.14-11.8-8.74-19.82-10.22-4.26-.75-8.67-.8-12.88.27-4.32.39-8.58,1.41-12.6,3.04-11.07,4.88-21.72,14.34-23.91,26.71-1.17,7.22.83,14.87,4.84,20.93,3.4,4.73,8.26,8.15,13.67,10.27ZM779.86,257.25c-1.6,18.61-16.91,22.78-33.02,23.32-3.72.12-7.57-.06-11.26-.79,17.61-.36,36.42-5.21,39.73-25.35.97-4.72.96-9.21.14-13.34,3.43,4.6,5.04,10.29,4.4,16.16ZM704.76,245.22c1.3-5.88,5.63-10.45,9.99-14.34,6.49-5.65,15.73-8.88,24.76-8.88,7.9,0,15.65,2.46,21.27,7.92,5.47,5.01,8.21,12.12,7.41,19.5-1.6,18.61-16.91,22.78-33.02,23.32-9.26.29-19.32-1.19-25.65-8.64-4.02-5.25-6.18-12.32-4.77-18.88Z"/>
  <path class="cls-1" d="M734.35,249.82c.56.39,1.13.55,1.7.55,1.5,0,2.91-1.18,3.72-2.52,1.55-2,3.15-3.97,4.85-5.85,1.91-2.52,5.86-4.91,4.95-8.52-.53-1.49-2.18-2.38-3.71-1.98-1.73.43-3.03,1.76-4.16,3.07-1.9,2.2-3.58,4.52-5.34,6.82-1.63,2.21-5.53,5.87-2,8.42Z"/>
  <path class="cls-1" d="M727.65,267.3c1.38.34,2.83.5,4.3.5,8.82,0,18.66-5.81,21.5-13.93,1.52-4.11-1.41-9.55-5.95-6.44-.92.78-1.41,2.09-1.3,3.28-.45,5.55-7.26,9.65-12.12,11.23-5.08,1.39-9.92-2.41-12.34-6.62-3.36-5.34-1.18-12.83,3.94-16.21,2.23-1.46,5.4-.17,7.37-2.01.76-.93.47-2.31-.43-3.05-4.75-3.33-12.68,1.34-15.37,5.66-2.53,3.79-3.74,8.64-2.71,13.14,1.58,6.49,6.33,12.94,13.11,14.46Z"/>
  <path class="cls-1" d="M485.83,68.03c.07,0,.14-.02.21-.02.32.07.64.12.97.12,2.23,0,4.01-2.09,3.93-4.25-.09-2.29-2.02-3.93-4.25-3.93-.98,0-1.86.42-2.55,1.05-1.3.61-2.19,2.03-2.13,3.5.08,2.06,1.81,3.53,3.82,3.53Z"/>
  <path class="cls-1" d="M499.43,78.43c.22.03.44.06.66.06,1.49,0,2.79-.82,3.62-1.98.87-1.04,1.39-2.4,1.33-3.77-.12-3.08-2.71-5.28-5.71-5.28s-5.4,2.8-5.28,5.71c.12,2.96,2.53,5.11,5.38,5.27Z"/>
  <path class="cls-1" d="M512.58,83.76c2.24,0,4.04-2.1,3.95-4.27-.09-2.3-2.03-3.95-4.27-3.95s-4.04,2.1-3.95,4.27c.09,2.3,2.03,3.95,4.27,3.95Z"/>
  <path class="cls-1" d="M834.17,211.15c-11.84-20.18-25.53-39.78-43.37-55.11-8.27-6.68-16.89-12.85-25.71-18.74-7.67-6.32-15.51-12.32-23.24-18.04-36.06-26.62-75.66-47.39-116.07-66.54-.67-.33-1.34-.67-2.01-1-5.73-2.82-11.49-5.58-17.26-8.33-2.39-1.14-4.78-2.27-7.17-3.41-16.03-7.92-31.88-16.2-48.21-23.5-16.16-7.48-32.77-15.41-50.86-16.24-26.75-1.89-50.07,7.55-69.44,25.78-9.14,8.38-18.16,16.98-26.27,26.37-.07.08-.14.16-.2.24-21.69,21.63-42.35,44.29-62.62,67.25-36.52,42.04-71.3,85.93-105.84,129.67-55.17,69.6-108.43,141.1-152.54,218.33-30.36,53.13-61.25,106.94-78.17,166.14-3.73,14.14-5.63,28.96-4.08,43.54-1.01,11.44-1.32,22.93-.96,34.41.27,12.28.85,24.62,3.28,36.69,3.2,14.77,8.64,29.04,15.47,42.5,11.03,20.36,28.07,36.9,46.09,51.13,25.53,20.51,51.89,40.57,81.5,54.87,45.26,21.02,94.05,36.13,143.93,40.17,3.21.2,6.36.3,9.47.3,60.14,0,102.58-36.86,144.7-76.92,51.72-48.62,98.91-101.71,147.09-153.76,32.07-34.08,62.62-69.51,93.38-104.77,19.57-22.62,39.33-45.09,58.15-68.33,21.39-27.07,40.64-55.77,59.24-84.8,12.83-20.21,26.42-40.01,37.62-61.19,6.82-13.25,13.33-26.87,16.5-41.5,9.83-45.79-.3-94.41-22.41-135.23ZM108.26,439.83c40.61-66.45,87.94-128.48,136.02-189.64,47.57-60.38,95.47-120.64,148.83-176.09,2.67-2.79,5.34-5.57,8.03-8.34,2.8-2.78,5.62-5.54,8.48-8.26,6.48-6.26,12.48-12.29,18.44-17.81,3.67-3.26,7.4-6.44,11.24-9.51,3.18-2.41,6.42-4.82,9.73-7.12,12.77-8.02,27.28-12.82,46.9-12.28,13.36.08,26.06,4.72,38.16,10.01,5.06,2.25,10.1,4.53,15.13,6.84,2.92,1.33,5.83,2.67,8.74,4.02,3.7,1.71,7.4,3.43,11.1,5.16,6.61,3.21,13.29,6.25,20.01,9.23,4.32,1.92,8.64,3.81,12.98,5.69,2.74,1.22,5.49,2.45,8.23,3.67,1.32.58,2.65,1.16,3.98,1.73.45.21.9.42,1.35.64,49.93,22.95,98.75,49,141.55,83.78,30.25,25.14,63.34,56.96,68.92,97.8,3.21,22.94-3.32,45.82-12.4,66.71-9.72,23-22.76,43.88-37.22,64.25-20.66,29.85-42.43,58.93-65.02,87.35-54.16,67.34-107.15,135.84-166.03,199.18-46.41,48.83-97.3,93.31-150.35,134.78-25.35,18.74-50.06,39.35-79.2,51.97-16.61,7.09-34.53,10.95-52.58,11.55-22.18-.47-43.54-8.81-63.54-17.9-26.25-11.82-51.61-25.65-76.4-40.31-30.96-18.28-63.06-36.31-86.96-63.76-8.23-9.54-15.51-19.39-20.46-31.14-5.6-12.91-7.45-25.97-6.91-39,.78-6.48,1.64-12.96,2.42-19.44,2.1-10.51,5.33-20.96,8.97-31.24,21.93-60.82,55.21-116.95,87.87-172.52ZM850.89,345.16c-3.23,15.36-9.96,29.73-17.38,43.52-8.98,15.92-19.25,31.05-28.88,46.59-16.12,25.39-32.52,50.61-50.31,74.89-23.21,31.55-49.24,60.92-74.68,90.67-20.71,23.96-41.88,47.68-63.22,71.25-53.32,58.23-105.91,117.23-162.81,172.04-30.82,28.9-61.15,60.81-101.09,76.82-35.26,14.94-70.98,11.21-107.42,3.22-34.41-7.37-68.12-19.01-99.98-34.21-22.12-11.18-42.32-25.46-61.94-40.67-20.98-16.29-42.3-33.37-55.79-56.7-10.66-19.61-17.72-41.39-19.41-63.7-.83-9.26-1.26-18.52-1.29-27.84,15.97,42.77,60.17,72.87,97.92,95.09,29.74,17.86,60.11,34.8,91.87,48.82,18.46,8.32,37.68,15.76,57.96,17.81,2.98.36,5.96.52,8.94.52,5.8,0,11.59-.6,17.33-1.47,13.24-1.81,26.28-5.27,38.52-10.67,24.89-10.61,46.22-27.62,67.79-43.64,50.71-38.48,98.68-80.58,143.77-125.49,51.17-51.87,96.46-109.11,142.13-165.76,39.61-49.37,79.83-98.37,115.17-150.95,17.4-25.07,31.94-52.32,41.09-81.49,6.51-21.29,7.2-44.62-.27-65.75-1-2.71-2.1-5.38-3.28-8.01,5.15,8.85,9.84,18.17,13.45,27.65,13.46,33.91,19.78,71.44,11.8,107.49Z"/>
  <path class="cls-1" d="M836.87,340.38c0-.2-.03-.4-.09-.61-.48-1.31-2.25-1.27-3.09-.37-3.69,4.34-6.73,9.19-9.79,14.03-1.76,2.78-3.52,5.55-5.42,8.21-12.94,19.5-26.81,38.35-40.35,57.43-43.84,61.38-87.49,123.04-136.89,180.14-13.42,15.85-27.21,31.37-41.23,46.68-23.37,25.51-47.38,50.43-71.43,75.32-9.37,9.45-18.71,18.95-28.07,28.42-19.44,19.67-38.99,39.23-59.28,58.02-12.58,11.62-25.52,22.86-38.85,33.6-6.22,5.01-12.52,9.93-18.93,14.71-7.94,5.92-15.96,11.9-24.54,16.88-5.15,2.98-10.49,5.6-16.14,7.61-22.64,7.71-51.28,7.58-77.74,3.49-12.62-1.95-24.74-4.81-35.48-8.15-13.77-4.32-27.14-9.77-40.23-15.81-7.86-3.62-15.62-7.46-23.32-11.39-26.18-13.2-52.21-26.77-77.2-42.14-2.09-1.29-4.22-2.51-6.35-3.72-3.27-1.86-6.56-3.69-9.74-5.69-10.1-6.43-19.64-13.71-29.03-21.13-3.45-2.48-6.84.27-6.7,3.33.04,1.02.48,2.07,1.43,2.97,6.59,5.31,13.39,10.35,20.27,15.27,4.13,2.95,8.29,5.86,12.46,8.77,9.47,6.64,19.3,12.7,29.32,18.45,16.71,9.58,33.94,18.29,50.93,27.32,14.48,7.78,29.07,15.11,43.92,21.5,30.42,13.1,61.98,22.28,96.16,23.3,3,.1,6,.16,9.01.16,1.68,0,3.37-.02,5.05-.06.02,0,.05,0,.07,0,1.64-.04,3.29-.09,4.93-.17,10.03-.48,20.02-1.77,29.71-4.41,7.99-2.34,15.61-5.89,22.83-10.02,5.2-3.39,10.32-6.9,15.36-10.5,24.48-17.51,47.16-37.42,69.18-58.05,14.9-13.95,29.5-28.22,44.15-42.29,25.58-25.12,50.87-50.59,75.62-76.57,36.59-38.4,71.98-77.94,105.32-119.18,6.32-7.82,12.58-15.68,18.75-23.62,15.92-20.32,31.15-41.14,45.97-62.26,8.89-12.67,17.63-25.45,26.29-38.29,16.05-23.91,33.07-47.15,49.19-71,1.61-2.39,3.23-4.77,4.82-7.17,1.96-2.94,3.84-5.93,5.69-8.93,3.97-6.44,7.76-12.99,11.47-19.59.65-1.38,2-2.83,1.98-4.41,0-.03,0-.05-.01-.08Z"/>
  <path class="cls-1" d="M359.5,328.82c2.6,22.53,16.5,41.65,30.6,58.66,14.04,16.27,31.35,30.05,50.73,39.4,14.76,6.73,30.88,10.12,46.95,11.81,3.01.33,6.03.47,9.05.47,6.95,0,13.89-.76,20.77-1.8,7.74-1.04,15.49-2.49,23.04-4.56,36.38-9.43,68.34-33.82,90.07-64.53,18.3-25.72,30.55-56.49,31.97-88.2,1.28-27.09-7.72-54.28-23.9-75.93-12.18-16.74-28.2-31.04-47.35-39.23-22.78-9.84-48.22-12.33-72.79-9.86-10.47-.52-20.98-.1-31.32,1.22-31.32,3.93-62.26,15.73-86.57,36.15-20.81,17.39-34.74,42.42-39.73,68.98-2.6,12.93-3.4,26.33-1.86,39.43-1.16,9.31-1.01,18.71.33,28ZM488.31,431.28c-12.97-.99-25.52-3.33-38.02-7.44-14.97-5.12-28.23-14.12-40.19-24.34-16.41-14.14-34.51-36.87-42.24-57.12-2.12-6.34-3.14-12.93-3.67-19.58,0,0,0,.01,0,.02,8.49,24.34,24.76,45.44,44.15,62.17,27.97,23.68,62.49,41.56,99.55,43.81,2.43.13,4.84.2,7.23.2.4,0,.8,0,1.2-.01-9.26,1.44-18.53,2.67-28.02,2.31ZM450.1,341.3c14.89,11.97,34.31,18.42,53.3,19.41,1.34.06,2.69.09,4.03.09,16.54,0,33.19-4.4,47.46-12.75,7.61-4.67,14.67-10.46,20.69-17.14.04.01.07.03.11.04,2.15,2.53,5.08,4.24,7.63,6.33,3.51,2.81,7.04,5.62,10.56,8.42.2.19.4.36.59.55,5.66,5.2,11.39,10.4,16.36,16.28,1.34,1.57,2.65,3.16,3.9,4.81.33.4.64.83.96,1.25-24.22,34.42-61.99,56.46-105.79,54.62-29.83-1.38-58.34-13.35-82.39-30.67-4.23-2.98-8.39-6.17-12.43-9.55.81-.16,1.58-.56,2.15-1.24.99-1.32,1.65-2.84,2.7-4.12,2.64-3.89,5.45-7.66,8.31-11.4,5.18-7.02,10.75-13.76,16.88-19.97,1.41-1.42,3.37-3.22,4.99-4.97ZM599.64,188.53c1.24.92,2.48,1.85,3.69,2.81,6.83,5.41,13.25,11.33,19.27,17.64,9.86,11.55,17.24,25.19,22.01,39.59,10,27.36-4.99,76.76-18.1,102.09-2.01,3.92-4.18,7.72-6.49,11.41-.72-.89-1.46-1.76-2.09-2.65-.24-.29-.48-.58-.72-.87-.09-.51-.35-1.01-.85-1.46-.41-.35-.83-.69-1.25-1.03-5.59-6.43-11.77-12.33-18.05-18.09-4.82-4.47-9.75-8.89-15.35-12.37-.41-.31-.83-.53-1.24-.68,5.65-7.58,9.99-16.09,12.38-25.31,7.13-27.88-2.77-54.29-23.02-71.58,1.39-1.95,2.58-4.03,3.37-5.06,1.51-2.31,3.06-4.6,4.65-6.86,4.98-7.05,10.08-14.03,15.73-20.56,1.98-2.37,4.13-4.61,6.05-7.02ZM462.81,229.46c4.49-2.41,9.13-4.57,13.71-6.76,10.78-5.15,22.77-9.18,34.79-9.68,3.07.04,6.16.27,9.25.71,4.21.57,8.32,1.56,12.34,2.88,19.48,8.31,35.48,23.37,47.4,40.69,2.25,3.36,4.22,6.89,5.96,10.54,1.62,7.15,1.99,14.61.94,22.03-2.8,21.62-17.57,40.35-35.73,51.73-11.94,7.26-25.86,11.13-39.78,11.88-47.26,1.85-91.65-32.88-77.82-83.27,5.11-16.36,15.55-30.58,28.96-40.75ZM613.43,185.89c26.97,23.05,44.42,57.84,42.85,93.7-1.48,33.39-14.97,65.59-35.55,91.8,7.87-11.29,14.39-23.81,19.39-37.2,7.6-20.27,13.37-41.68,13.75-63.43.3-11.72-3.01-23.08-7.63-33.75,0-.06.02-.11.03-.17-.51-.97-1.02-1.94-1.54-2.9-.84-1.57-1.69-3.14-2.52-4.71-.9-1.69-1.82-3.39-2.67-5.11-.31-.61-.61-1.23-.9-1.84-1.19-1.97-2.4-3.93-3.63-5.87-.37-.58-.73-1.14-1.1-1.72-5.76-7.21-11.98-13.91-14.92-16.73-16.66-17.3-37.55-29.16-60.13-36,19.92,3.16,38.91,10.65,54.58,23.94ZM404.73,197.47c29.17-24.51,67.75-36.5,105.61-36.5.88,0,1.76,0,2.63.02,28.25.42,56.78,7.85,80.53,23.28-.55.51-1.06,1.08-1.5,1.63-9.01,9.66-16.86,20.35-23.68,31.65-1.26,2.11-2.51,4.23-3.74,6.36-3.1-2.22-6.39-4.26-9.86-6.07-9.5-6.71-20.01-11.94-31.67-13.41-15.14-1.79-30.67,1.47-44.38,8.16-13.02,5.55-24.71,14.34-34,25.16-3.11-4.86-9.54-10.57-12.48-13.44-7.7-6.99-16.87-12.2-26.56-15.9-3.05-1.06-6.13-2.24-9.29-3.03,2.64-2.78,5.43-5.43,8.39-7.92ZM392.01,210.25c1.5.65,3.16,1.13,4.16,1.64,8.76,3.28,17.31,7.57,24.77,13.31,7.13,5.16,13.39,11.4,20.12,17.03-1.56,2.05-3.04,4.15-4.42,6.31-15.01,22.67-17.03,52.88-1.78,75.96,3.11,4.83,6.79,9.17,10.9,13.03-3.47,2.28-7.24,5.94-8.39,7-7.32,7.28-14.12,15.13-19.96,23.67-1.86,2.58-3.68,5.18-5.39,7.86-.72.92-1.27,2.01-1.33,3.15-25.15-22.47-44.58-52.56-45.96-86.77-1.07-29.47,8.3-59.58,27.26-82.18Z"/>
  <path class="cls-1" d="M617.84,268.33c4.03,4.35,8.37,8.42,11.86,13.22-1.4,2.72-4.16,4.46-6.42,6.42-2.98,2.44-5.99,4.67-9.11,6.96-2.17,2.04-8.7,4.5-5.93,8.15.59.65,1.25.92,1.95.92,2.52,0,5.57-3.43,7.58-4.48,5.6-4.02,11.53-7.76,16.29-12.8,1.86-1.94,2.95-4.92,1.97-7.54-1.58-3.47-5.11-5.51-7.23-8.64-4.66-5.49-9.08-11.18-13.91-16.53-1.66-1.73-3.53-4.22-6.21-3.93-2.01.33-2.64,2.62-2.09,4.32,2.43,5.5,7.32,9.5,11.25,13.93Z"/>
  <path class="cls-1" d="M398.87,322.54c.42.32.91.46,1.42.46.9,0,1.82-.46,2.32-1.21.74-1.11.53-2.63-.46-3.51-2.99-2.59-5.88-5.26-8.64-8.09-5.34-5.59-10.96-12.76-12.51-20.65-.43-3.32,2.59-5.45,4.89-7.27,3.47-2.74,6.96-5.46,10.49-8.12,3.48-2.64,7.44-5.2,11.11-7.76,1.16-.92,2.68-1.75,3.13-3.25-.18-5.91-12.76,2.34-15.12,3.83-3.96,2.52-7.88,5.12-11.59,8.01-3.01,2.4-6.42,4.65-8.26,8.14-3.26,6.15-.14,13.28,2.97,18.85,4.93,8.43,12.72,14.58,20.26,20.57Z"/>
  <path class="cls-1" d="M475.9,200.05c3.72,0,8.76-11.63,9.82-13.99.72-1.78,1.41-3.57,2.13-5.35,1.29-2.33,1.6-7.08,5.31-5.6,3.31.91,6.41,2.42,9.42,4.05,2.96,1.73,5.63,3.92,8.23,6.14,2.45,1.87,5.63,6.8,8.87,3.56,2.97-3.9-3.06-6.51-5.4-8.78-6.24-5.04-16.01-12.42-24.39-11.32-5.56,1.38-6.59,7.94-8.93,12.35-1.82,4.03-3.68,8.06-5.51,12.09-.69,1.86-2.11,4.14-1.03,6.09.46.53.96.76,1.49.76Z"/>
  <path class="cls-1" d="M489.33,400.14c1.4,2.26,2.56,4.77,4.53,6.61,1.74,1.37,3.69,1.94,5.76,1.94,8.84,0,19.77-10.6,25.15-15.5,2.08-2.02,4.08-4.1,6.11-6.17,1.96-2,4.06-3.9,5.78-6.11.92-1.07.97-2.73.02-3.81-1.98-2.17-4.26-.39-5.94,1.14-1.45,1.32-2.9,2.64-4.37,3.93-7.44,6.35-14.72,13.03-22.97,18.32-1.57.63-4.2,2.36-5.65.89-1.69-2.88-3.14-5.91-4.69-8.86-2.31-4.6-4.39-9.3-6.49-13.99-1.25-2.23-1.87-5.59-4.62-6.39-5.82-.04-2.22,7.62-1.22,10.71,2.25,6.05,5.44,11.68,8.61,17.28Z"/>
  <path class="cls-1" d="M485.28,282.85c1.64.47,3.37.69,5.15.69,12.18,0,26.32-10.45,26.15-22.65-.2-7.9-7.69-13.62-15.14-14.25-3.92-.36-8.67-.41-11.71,2.43-13.65,4.37-21.89,28.91-4.44,33.78ZM486.26,258.18c2.96-3.24,7.13-4.92,11.25-6.17,8.96,1.03,15.76,7.32,9.48,16.02-3.61,5.42-9.71,9.14-16.18,9.87-13.21.6-11.15-12.71-4.55-19.72Z"/>
  <path class="cls-1" d="M511.77,305.54c.57.28,1.1.41,1.6.41,3.05,0,4.74-4.74,6.48-6.9.65-.95,1.3-1.89,1.95-2.83,1.1,1.84,2.65,3.68,4.1,5.29,2.56,3.18,5.4,6.12,8.09,9.18,2.17,2.33,3.75,5.23,5.93,7.48.49.4,1.06.57,1.61.57,1.66,0,3.26-1.56,2.74-3.4-.34-1.2-1.22-2.18-2-3.13-5.14-6.43-11.72-11.85-15.36-19.39,8.09-2.78,16.55-4.34,24.78-6.64,1.64-.4,3.84-2.04,2.1-3.69-.67-.59-1.81-.64-2.65-.65-3.21.02-6.39.59-9.56,1.07-4.1.61-8.19,1.41-12.18,2.55,1.09-1.47,2.19-2.94,3.31-4.39,1.66-2.45,8.01-9.37,7.06-12.08-3.69-6.2-19.36,16.85-21.48,20.12-1.97,2.98-3.88,5.97-5.86,8.93-1.48,2.13-3.68,5.64-.67,7.49Z"/>
  <path class="cls-1" d="M226.77,385.42c.36,7.94,6.36,14.07,12.4,18.55,39.45,29.92,77.57,61.53,117.09,91.37,29.55,22.58,60.66,43.34,91.07,64.79,13.52,9.26,27.05,18.5,40.64,27.66,5.42,3.66,10.83,7.37,16.54,10.59,2.82,1.58,5.8,3.19,9.03,3.71.89.18,1.77.27,2.64.27,4.13,0,7.8-2.03,9.83-5.97,2.35-3.76,4.68-7.52,6.93-11.34,3.08-4.82,5.27-10.11,6.86-15.61.64-2.52,1.84-5.03,1.82-7.66-.31-2.36-1.09-4.65-2.24-6.74.64-2.05,1.43-4.11,1.41-6.25-.45-3.45-1.89-6.75-4.05-9.48-5.66-6.96-13.32-11.97-20.15-17.71-5.04-3.99-10.1-7.95-15.23-11.81-27.17-20.61-55.89-39.98-83.68-59.88-32.53-23.6-66.42-45.26-98.96-68.83-10.68-7.74-21.39-15.44-32.25-22.93-4.35-2.99-8.68-6-12.96-9.08-2.55-2.32-5.09-4.65-7.72-6.88-7.76-7.05-14.02-10.07-22.71-2.17-5.68,5.96-9.88,13.23-13.51,20.58-1.73,3.72-3.5,7.66-3.59,11.83.12,2.57.83,4.95,1.94,7.14-.63,1.9-1.06,3.85-1.11,5.85ZM523.72,590.24c-1.86,2.02-3.18,5.66-6.38,5.53-3.3.12-6.18-1.62-8.98-3.15-4.61-2.62-9.05-5.51-13.48-8.44-16.48-10.96-33.02-21.86-49.26-33.17-35.07-24.72-70.47-48.79-104.35-75.19-32.75-25.18-64.72-51.36-97.34-76.71-6.48-4.47-9.68-8.19-10.53-12.26,1.55,1.51,3.23,2.89,4.91,4.13,39.45,29.92,77.57,61.53,117.09,91.37,29.55,22.58,60.66,43.34,91.07,64.79,13.52,9.26,27.05,18.5,40.64,27.66,5.43,3.66,10.83,7.37,16.54,10.59,2.82,1.58,5.8,3.19,9.03,3.71.89.18,1.78.27,2.64.27,4.13,0,7.8-2.03,9.83-5.98,2.35-3.76,4.68-7.52,6.93-11.34.55-.87,1.07-1.75,1.57-2.65-2.03,7.29-5.62,14.64-9.94,20.84ZM514.67,527.97c4.77,3.81,9.53,7.67,13.96,11.88,2.61,2.65,5.07,5.73,5.83,9.46-.23,1.57-.64,3.13-1.01,4.67-1.85,8.07-5.78,16.38-10.57,23.27-1.86,2.02-3.18,5.66-6.38,5.54-3.3.12-6.17-1.62-8.98-3.15-4.61-2.62-9.05-5.51-13.48-8.44-16.48-10.96-33.02-21.86-49.26-33.17-7.23-5.1-14.47-10.16-21.71-15.23,1.15-.6,2.13-1.65,2.73-2.83,1.75-2.65,3.66-5.19,5.39-7.85,4.36-6.93,9.19-12.88,14.32-19.79,1.77-2.44,3.55-4.9,5.14-7.46.52-.91,1.12-1.84,1.63-2.8,21.15,14.8,42.16,29.79,62.36,45.91ZM446,477.65c-6.25,5.23-10.45,12.45-15.08,19.05-3.65,5.41-7.68,10.56-10.98,16.2-1.09,1.7-2.54,3.74-2.87,5.67-25.87-18.11-51.65-36.29-76.61-55.73-7.01-5.39-13.98-10.84-20.94-16.3.83-.8,1.56-1.77,2.17-2.64,2.02-2.53,3.66-5.22,5.54-7.89,3.5-5.09,7.03-10.16,10.68-15.14,1.7-2.84,7.26-8.41,8.67-12.56,16.8,11.64,33.77,23.04,50.5,34.77,16.15,11.76,32.56,23.14,48.94,34.57ZM237.94,356.11c3.77-5.8,7.73-15.16,15.88-15.25,1.23,1.95,3.38,3.07,5.21,4.38,2.79,1.85,5.55,3.72,8.25,5.71,5.04,3.74,10.09,7.47,15.22,11.07,10.57,8.41,21.5,16.37,32.7,23.92,8.42,6.24,16.96,12.31,25.55,18.31-4.51,2.6-9.63,10.07-11.6,12.36-3.72,4.86-7.07,9.97-10.32,15.14-1.5,2.35-3.07,4.7-4.31,7.21-.47.77-.96,1.65-1.35,2.58-23.37-18.45-46.55-37.15-70.05-55.42-14.16-9.77-12.66-15.97-5.18-30.01Z"/>
  <path class="cls-1" d="M300.01,363.16c.6.41,1.16.58,1.68.58,1.98,0,3.47-2.46,4.61-4.06.92-1.22,1.8-2.47,2.67-3.72,1.12.66,2.04,1.17,2.53,1.45.43.23.86.33,1.28.33,2.25,0,3.89-3.03,1.9-4.82-.81-.61-1.64-1.2-2.49-1.76,1.26-1.93,2.58-3.84,3.61-5.9.37-.77.85-1.86.41-2.7-1.58-2.5-5.64,1.44-9.08,5.6-.91-.48-1.82-.93-2.75-1.36-1.05-.46-2.5-1.31-3.61-.57-2.07,1.54.06,4.02,2.99,6.27-.88,1.19-1.55,2.14-1.89,2.59-1.43,2.33-4.99,5.64-1.85,8.07Z"/>
  <path class="cls-1" d="M259.53,432.02c-4.53-3.24-9.04-6.53-13.91-9.24-1.38-.75-3.34-1.9-4.88-.87-.88.59-1.24,1.5-1.12,2.54.86,3.25,4.41,4.73,6.79,6.75,2.95,2.28,6.08,4.32,9.08,6.54.69.46,1.38.65,2.02.65,2.95,0,5.02-4.1,2.01-6.37Z"/>
  <path class="cls-1" d="M504.61,478.39c-4.28,1.49-8.63,2.85-12.82,4.59-2.23.89-7.32,3.23-4.43,6.04,4.28,2.02,14.3-3.56,19.24-4.27,2.69,4.9,2.59,10.77,3.37,16.15.33,1.8,1.78,2.68,3.23,2.68,1.53,0,3.05-.98,3.22-2.91.04-3.16-.66-6.29-.98-9.43-.51-6.29-2.46-15.36-10.82-12.84Z"/>
  <path class="cls-1" d="M453.94,578.55c-6.51.3-13.38,1.26-19.91.25.53-4.14,1.77-8.29,2.32-12.45.41-2.16,1.15-5.09-.95-6.63-1.28-.85-3.02-.59-4.01.6-1.55,1.75-1.8,4.15-2.34,6.33-.81,3.42-.82,6.91-1.16,10.38-1.23,6.82,3.01,8.55,9.01,8.53.69.02,1.38.04,2.07.04,5.19,0,10.36-.64,15.54-1.21,3.09-.84,2.61-5.61-.58-5.82Z"/>
  <path class="cls-1" d="M350.97,467.54c.3.13.58.2.85.24.28.43.67.86,1.2,1.24,5.29,4.14,10.68,8.18,16.12,12.12.53.35,1.06.51,1.56.51,2.29,0,3.93-3.23,1.57-4.94-5.81-3.48-10.76-8.27-16.76-11.45.82-1.24,1.55-2.63,2.38-3.43,1.9-2.69,3.96-5.26,6-7.85,2.88,2.93,6.17,5.45,9.35,8.04,3.06,2.17,5.94,4.85,9.41,6.33-1.43,2.87-3.7,5.45-5.51,8-1.5,2.16-5.21,5.18-2.14,7.62.57.37,1.1.52,1.6.52,1.97,0,3.39-2.48,4.65-4.06,3.16-4.47,6.79-8.95,8.5-14.2.44-1.59.09-3.21-.38-4.74-.3-2.13-.38-4.02-.62-6.41-.24-2.45-.41-5.29-.75-7.99-.22-1.56-.56-3.47-2.12-4.14-1.52-3.68-10.11.28-13.01.8-1.66.5-3.32,1.09-5.04,1.38-1.82.17-3.73.4-5.3,1.4-4.63,3.38-7.28,8.73-10.4,13.41-1.26,2.18-4.32,5.69-1.15,7.6ZM368.12,450.25c2.49-1.55,9.83-1.69,14.3-3.28-.09,5.05,2.38,13.24,1.68,16.23-5.57-4.36-11.33-8.51-17.26-12.39.38-.24.8-.44,1.28-.56Z"/>
  <path class="cls-1" d="M282.29,532.08c-8.54,8.77-12.2,25.73-5.24,35.47.37,8.69,4.73,16.41,14.89,18.38,2.13.35,4.32.52,6.51.52,2.81,0,5.62-.28,8.34-.79,4.94-1.44,9.98-3.07,14.29-5.95,7.22-5,13.76-12.27,14.57-21.37.34-5.64-1.05-10.24-3.59-13.86-.63-24.25-35.04-27.42-49.77-12.41ZM286.08,537.54c5.26-5.86,13.33-8.45,21.04-8.53,1.61,1.43,3.98,1.31,5.95,1.91,2.08.58,4.03,1.58,5.72,2.93,10.67,9.05,2.73,21.99-6.45,28.55-6.13,4.2-13.3,6.83-20.8,6.56-17.29-.78-13.53-22.02-5.47-31.42ZM315.97,573.9c-6.13,4.2-13.3,6.83-20.8,6.56-6.29-.28-9.8-3.28-11.32-7.43,1.35.6,2.82,1.08,4.46,1.4,2.13.36,4.31.52,6.5.52,2.81,0,5.62-.28,8.34-.79,4.94-1.44,9.98-3.07,14.29-5.95,3.58-2.48,6.99-5.52,9.62-9.06-1.46,5.7-6.09,11.17-11.09,14.74Z"/>
  <path class="cls-1" d="M374.35,602.83c-8.53,8.76-12.2,25.71-5.25,35.45.37,8.7,4.73,16.43,14.9,18.4,2.13.35,4.32.52,6.5.52,2.81,0,5.63-.28,8.34-.79,4.94-1.44,9.98-3.07,14.29-5.95,7.22-5,13.76-12.27,14.57-21.37.34-5.65-1.05-10.26-3.59-13.88-.65-24.24-35.04-27.4-49.77-12.39ZM378.13,608.29c5.26-5.86,13.33-8.45,21.04-8.53,1.61,1.43,3.98,1.31,5.95,1.91,2.08.58,4.03,1.58,5.72,2.93,4.43,3.75,5.64,8.17,4.91,12.53-.04.01-.08.03-.12.04.03.03.06.07.1.1-1.09,6.1-6,12.06-11.33,15.87-6.13,4.2-13.3,6.83-20.8,6.56-17.29-.78-13.53-22.02-5.47-31.42ZM408.03,644.65c-6.13,4.2-13.3,6.83-20.8,6.56-6.29-.28-9.8-3.28-11.32-7.43,1.35.6,2.82,1.08,4.46,1.4,2.13.36,4.31.52,6.5.52,2.81,0,5.62-.28,8.34-.79,4.94-1.44,9.98-3.07,14.29-5.95,3.58-2.48,6.98-5.52,9.61-9.05-1.46,5.7-6.09,11.17-11.09,14.74Z"/>
  <path class="cls-1" d="M204.88,522.26c2.13.35,4.32.52,6.51.52,2.81,0,5.62-.28,8.34-.79,4.94-1.44,9.98-3.07,14.29-5.95,7.22-5,13.76-12.27,14.57-21.37.34-5.65-1.05-10.27-3.59-13.88-.65-24.23-35.04-27.39-49.77-12.39-8.54,8.77-12.2,25.73-5.23,35.47.37,8.69,4.73,16.41,14.89,18.38ZM240,495.49c-1.46,5.7-6.08,11.17-11.08,14.74-6.14,4.2-13.31,6.83-20.8,6.56-6.29-.28-9.79-3.28-11.32-7.42,1.34.6,2.81,1.08,4.45,1.39,2.13.36,4.32.52,6.51.52,2.81,0,5.62-.28,8.34-.79,4.94-1.44,9.98-3.07,14.29-5.95,3.58-2.48,6.99-5.52,9.61-9.05ZM199.02,473.87c5.26-5.86,13.33-8.45,21.04-8.53,1.61,1.43,3.98,1.31,5.95,1.91,2.08.58,4.03,1.58,5.72,2.93,10.68,9.05,2.73,21.99-6.44,28.55-6.14,4.2-13.31,6.83-20.8,6.56-17.29-.78-13.53-22.02-5.47-31.42Z"/>
  <path class="cls-1" d="M317.56,670.3c-8.53,8.76-12.2,25.71-5.25,35.45.37,8.7,4.73,16.43,14.9,18.4,2.13.35,4.32.52,6.5.52,2.81,0,5.63-.28,8.34-.79,4.94-1.44,9.98-3.07,14.29-5.95,7.22-5,13.76-12.27,14.57-21.37.34-5.65-1.05-10.26-3.59-13.88-.65-24.24-35.04-27.4-49.77-12.39ZM321.35,675.76c5.26-5.86,13.33-8.45,21.04-8.53,1.61,1.43,3.98,1.31,5.95,1.91,2.08.58,4.03,1.58,5.72,2.93,4.43,3.75,5.64,8.17,4.91,12.53-.04.01-.08.03-.12.04.03.03.06.07.09.1-1.09,6.1-6,12.06-11.33,15.87-6.13,4.2-13.3,6.83-20.8,6.56-17.29-.78-13.53-22.02-5.47-31.42ZM351.24,712.12c-6.13,4.2-13.3,6.83-20.8,6.56-6.29-.28-9.8-3.28-11.32-7.43,1.35.6,2.82,1.08,4.46,1.4,2.13.36,4.31.52,6.5.52,2.81,0,5.62-.28,8.34-.79,4.94-1.44,9.98-3.07,14.29-5.95,3.58-2.48,6.98-5.52,9.61-9.05-1.46,5.7-6.09,11.17-11.09,14.74Z"/>
  <path class="cls-1" d="M148.09,589.73c2.13.35,4.32.52,6.51.52,2.81,0,5.62-.28,8.34-.79,4.94-1.44,9.98-3.07,14.29-5.95,7.22-5,13.76-12.27,14.57-21.37.34-5.65-1.05-10.27-3.59-13.88-.65-24.23-35.04-27.39-49.77-12.39-8.54,8.77-12.2,25.73-5.23,35.47.37,8.69,4.73,16.41,14.89,18.38ZM183.21,562.96c-1.46,5.7-6.08,11.17-11.08,14.74-6.14,4.2-13.31,6.83-20.8,6.56-6.29-.28-9.79-3.28-11.32-7.42,1.34.6,2.81,1.08,4.45,1.39,2.13.36,4.32.52,6.51.52,2.81,0,5.62-.28,8.34-.79,4.94-1.44,9.98-3.07,14.29-5.95,3.58-2.48,6.99-5.52,9.61-9.05ZM142.23,541.34c5.26-5.86,13.33-8.45,21.04-8.53,1.61,1.43,3.98,1.31,5.95,1.91,2.08.58,4.03,1.58,5.72,2.93,10.68,9.05,2.73,21.99-6.44,28.55-6.14,4.2-13.31,6.83-20.8,6.56-17.29-.78-13.53-22.02-5.47-31.42Z"/>
  <path class="cls-1" d="M278.86,625.82c.34-5.64-1.05-10.24-3.59-13.86-.63-24.25-35.04-27.42-49.77-12.41-8.54,8.77-12.2,25.73-5.24,35.47.37,8.69,4.73,16.41,14.89,18.38,2.13.35,4.32.52,6.51.52,2.81,0,5.62-.28,8.34-.79,4.94-1.44,9.98-3.07,14.29-5.95,7.22-5,13.76-12.27,14.57-21.37ZM229.29,605.01c5.26-5.86,13.33-8.45,21.04-8.53,1.61,1.43,3.98,1.31,5.95,1.91,2.08.58,4.03,1.58,5.72,2.93,10.67,9.05,2.73,21.99-6.45,28.55-6.13,4.2-13.3,6.83-20.8,6.56-17.29-.78-13.53-22.02-5.47-31.42ZM259.18,641.37c-6.13,4.2-13.3,6.83-20.8,6.56-6.29-.28-9.8-3.28-11.32-7.43,1.35.6,2.82,1.08,4.46,1.4,2.13.36,4.31.52,6.5.52,2.81,0,5.62-.28,8.34-.79,4.94-1.44,9.98-3.07,14.29-5.95,3.58-2.48,6.99-5.52,9.62-9.06-1.46,5.7-6.09,11.17-11.09,14.74Z"/>
  <path class="cls-1" d="M174.52,664.61c-8.54,8.77-12.2,25.73-5.24,35.47.37,8.69,4.73,16.41,14.89,18.38,2.13.35,4.32.52,6.51.52,2.81,0,5.62-.28,8.34-.79,4.94-1.44,9.98-3.07,14.29-5.95,7.22-5,13.76-12.27,14.57-21.37.34-5.64-1.05-10.24-3.59-13.86-.63-24.25-35.04-27.42-49.77-12.41ZM178.31,670.07c5.26-5.86,13.33-8.45,21.04-8.53,1.61,1.43,3.98,1.31,5.95,1.91,2.08.58,4.03,1.58,5.72,2.93,10.67,9.05,2.73,21.99-6.45,28.55-6.13,4.2-13.3,6.83-20.8,6.56-17.29-.78-13.53-22.02-5.47-31.42ZM208.21,706.43c-6.13,4.2-13.3,6.83-20.8,6.56-6.29-.28-9.8-3.28-11.32-7.43,1.35.6,2.82,1.08,4.46,1.4,2.13.36,4.31.52,6.5.52,2.81,0,5.62-.28,8.34-.79,4.94-1.44,9.98-3.07,14.29-5.95,3.58-2.48,6.99-5.52,9.62-9.06-1.46,5.7-6.09,11.17-11.09,14.74Z"/>
  <path class="cls-1" d="M266.58,735.36c-8.53,8.76-12.2,25.71-5.25,35.45.37,8.7,4.73,16.43,14.9,18.4,2.13.35,4.32.52,6.5.52,2.81,0,5.63-.28,8.34-.79,4.94-1.44,9.98-3.07,14.29-5.95,7.22-5,13.76-12.27,14.57-21.37.34-5.65-1.05-10.26-3.59-13.88-.65-24.24-35.04-27.4-49.77-12.39ZM270.37,740.82c5.26-5.86,13.33-8.45,21.04-8.53,1.61,1.43,3.98,1.31,5.95,1.91,2.08.58,4.03,1.58,5.72,2.93,4.43,3.75,5.64,8.17,4.91,12.53-.04.01-.08.03-.12.04.03.03.06.07.1.1-1.09,6.1-6,12.06-11.33,15.87-6.13,4.2-13.3,6.83-20.8,6.56-17.29-.78-13.53-22.02-5.47-31.42ZM300.27,777.18c-6.13,4.2-13.3,6.83-20.8,6.56-6.29-.28-9.8-3.28-11.32-7.43,1.35.6,2.82,1.08,4.46,1.4,2.13.36,4.31.52,6.5.52,2.81,0,5.62-.28,8.34-.79,4.94-1.44,9.98-3.07,14.29-5.95,3.58-2.48,6.98-5.52,9.61-9.05-1.46,5.7-6.09,11.17-11.09,14.74Z"/>
  <path class="cls-1" d="M97.11,654.79c2.13.35,4.32.52,6.51.52,2.81,0,5.62-.28,8.34-.79,4.94-1.44,9.98-3.07,14.29-5.95,7.22-5,13.76-12.27,14.57-21.37.34-5.65-1.05-10.27-3.59-13.88-.65-24.23-35.04-27.39-49.77-12.39-8.54,8.77-12.2,25.73-5.23,35.47.37,8.69,4.73,16.41,14.89,18.38ZM132.23,628.02c-1.46,5.7-6.08,11.17-11.08,14.74-6.14,4.2-13.31,6.83-20.8,6.56-6.29-.28-9.79-3.28-11.32-7.42,1.34.6,2.81,1.08,4.45,1.39,2.13.36,4.32.52,6.51.52,2.81,0,5.62-.28,8.34-.79,4.94-1.44,9.98-3.07,14.29-5.95,3.58-2.48,6.99-5.52,9.61-9.05ZM91.25,606.4c5.26-5.86,13.33-8.45,21.04-8.53,1.61,1.43,3.98,1.31,5.95,1.91,2.08.58,4.03,1.58,5.72,2.93,10.68,9.05,2.73,21.99-6.44,28.55-6.14,4.2-13.31,6.83-20.8,6.56-17.29-.78-13.53-22.02-5.47-31.42Z"/>
  <path class="cls-1" d="M206.34,497.68c1.06-1.26,2.18-2.46,3.35-3.61,3.58-3.97,7.29-7.82,10.88-11.77,1.32-1.66,3.09-3.89,2.16-6.11-1.24-2.85-4.61-1.88-6.82-.89-2.19.89-4.39,1.79-6.46,2.93-.75.45-1.41,1.07-1.54,1.98.17,3.85,6.23.65,8.29.15-3.27,4.51-7.13,8.54-10.62,12.88-.98,1.36-3.79,3.01-2.07,4.86.86.82,2.2.52,2.84-.41Z"/>
  <path class="cls-1" d="M296.61,562.65c.88.46,2.03.14,2.51-.76,1.11-2.57-2.64-3.26-3.96-4.76-1.09-.97-3.42-3.2-1.52-4.42,4.71-2.58,11.07-3.57,13.91-8.64,1.88-3.5.04-7.95-3.97-8.69-1.76-.56-6.27.6-4.08,2.98.82.53,1.85.4,2.78.54,2.01.19,2.52,2.21,1.45,3.72-2.08,2.51-5.31,3.92-8.3,5.3-1.74.82-3.77,1.24-5.17,2.64-3.75,4.75,2.47,9.89,6.36,12.09Z"/>
  <path class="cls-1" d="M387.21,629.5c6.8,1.14,12.21-5.77,7.48-11.53,2.91-1.13,6.59-2.09,8.08-5.11,1.17-3.07-1.27-6.48-4.36-7.04-2.42-.41-5.92-.29-7.26,2.1-.52,4.18,7.02.03,7.89,3.55-1.78,1.86-4.39,2.89-6.92,3.18-.69.08-1.4,0-2.08.11-1.48.19-2.51,1.86-1.8,3.23.69,1.38,2.3,1.61,3.59,2.16,1.01.65,1.91,1.84,1.76,3.1-1.27,2.7-5.41,2.34-7.14.28-1.82-1.97-2.58-4.58-3.73-6.94-.43-.83-1.27-1.34-2.22-1.18-3.65,1.05-.72,6.67.26,8.93,1.34,2.46,3.6,4.73,6.46,5.16Z"/>
  <path class="cls-1" d="M150.7,566.41c1.9-1.44,3.8-2.87,5.73-4.27,3.49-2.37,7.19-4.76,10.75-7.09,1.18-.88,2.53-1.56,3.52-2.66,1.43-1.78-.98-4.36-2.87-3.09-1.73,1.34-3.6,2.42-5.64,3.25-1.49.46-2.99,1.73-4.6,1.38-1.92-1.14-4.42-3.73-3.22-6.1,2.04-2.53,5.24-3.91,7.94-5.67,1.31-.8,3.27-.97,3.95-2.5.63-1.81-1.38-3.17-2.95-2.25-2.77,1.59-5.58,3.1-8.25,4.85-5.56,3.12-6.52,7.12-2.04,11.88,1.1,1.19,1.96,2.71,3.47,3.43-2.38,1.8-4.57,3.26-7.11,5.05-1.29.94-4.74,2.53-3.13,4.72,1.34,1.59,3.23.03,4.44-.93Z"/>
  <path class="cls-1" d="M234.85,630.08c1.75.79,3.71.84,5.58.54,3.21-.14,6.32-1.75,7.55-4.84,1.05-2.07,1.27-4.5,1.08-6.78-.24-2.36-1.99-4.09-2.93-6.15,2.17-1.54,5.15-2.93,7.85-3.12,1.4,1.76,2.31,5.69,5.04,5.76,4.33-.83.63-6.86-.83-9.07-3.08-3.77-8.3-1.27-11.76.54-1.66.95-3.47,1.84-4.5,3.52-2.87,4.93,5.17,7,1.19,13.26-1.29,1.49-3.7,1.2-5.46.91-3.57-.5-1.88-4.92-1.87-7.39.05-1.16-.64-2.23-1.81-2.5-2.9-.53-3.2,3.07-3.58,5.11-1.07,3.99.05,8.92,4.43,10.22Z"/>
  <path class="cls-1" d="M329.67,697.68c2.16.48,4.23-.41,6.13-1.37,1.08-.55,2.11-1.2,2.8-2.23,2.12-3.15,2.9-8.15-.41-10.78,2.66-1.29,5.67-2.01,8.63-1.64,2.02.5,4.76,1.3,4.62-1.83-2.59-6.2-11.61-3.79-16.18-1.23-4.49,2.46-8.47,6.26-10.04,11.24-1.34,3.35.61,7.61,4.44,7.84ZM333.9,686.07c1.24,1.7,1,3.93.11,5.73-1.04.75-2.16,1.8-3.47,1.96-4.69-.02,1.88-6.67,3.36-7.69Z"/>
  <path class="cls-1" d="M100.46,621.49c1.02-.6,2.05-1.16,3.09-1.71,1.01.76,1.84,1.34,2.26,1.64,1.97,1.01,3.95-1.67,2.46-3.29-.15-.17-.32-.32-.48-.48.95-.46,1.9-.91,2.86-1.37,3.59-1.69,7.98-5.78,3.6-9.25-1.02-.57-2.1-.99-3.02-1.73-1.9-.95-6.77-6-7.34-1.45.03.52.34,1.06.7,1.42,1.91,1.95,4.61,2.98,6.44,4.99-1.93,1.86-4.22,3.21-6.58,4.46-.34-.28-.67-.57-.99-.87-1.67-1.27-3.4-3.75-5.73-3.26-2.38,1.15-.29,3.89,2.4,6.36-1.04.55-2.07,1.11-3.05,1.74-1.56,1.04-4.96,2.16-3.55,4.58,1.84,2.34,4.93-1.06,6.95-1.78Z"/>
  <path class="cls-1" d="M187.58,691.6c7.81,2.38,15.76-5.51,13.12-13.34,1.45-.93,3.01-1.75,4.37-2.8-.04.03-.08.06-.12.09,0,0-.01.01-.02.02,1.28-.81,2.81-2.2,1.72-3.79-.17-2.29-2.85-3.25-4.83-3.38-4.39-.22-7.71,3.84-5.98,8.04-3.11,2.11-6.17,4.32-8.81,7.01-1.07,1.21-2.59,2.47-2.84,4.17-.23,2.06,1.46,3.69,3.4,3.98ZM200.4,673.3c-.17.12-.34.24-.51.36.14-.16.33-.27.51-.36ZM192.33,683.82s-.03.03-.05.04c1.52-1.14,3.14-2.15,4.73-3.2.57,4.52-4.78,6.18-8.4,6.62-.02,0-.04,0-.06,0,1.1-1.31,2.46-2.4,3.79-3.46Z"/>
  <path class="cls-1" d="M279.6,761.56c6.68.73,12.41-4.17,15.35-9.79.92-2.09,3.59-5.01,1.8-7.39,1.42-5-6.28-6.11-9.3-3.66-5.59,3.75-4.35,11.78,3.24,9.46-1.64,3.93-5.96,6.2-10.13,5.9-2-.05-2.49-2.42-3.2-3.9-.37-.86-1.43-1.29-2.31-1.11-2.23.49-1.68,3.11-1.29,4.76.55,2.87,2.91,5.3,5.84,5.73ZM288.12,746.54s-.08-.01-.13-.02c.77-1.37,2.69-2.83,4.29-2.14-1.15,1.07-2.64,1.8-4.17,2.15Z"/>
  <path class="cls-1" d="M127.62,720.89c-8.54,8.77-12.2,25.73-5.24,35.47.37,8.69,4.73,16.41,14.88,18.38,2.13.35,4.32.52,6.5.52,2.81,0,5.62-.28,8.34-.79,4.94-1.44,9.98-3.07,14.29-5.95,7.22-5,13.76-12.27,14.57-21.37.34-5.64-1.06-10.24-3.59-13.85-.63-24.26-35.04-27.43-49.77-12.41ZM131.41,726.35c5.26-5.86,13.32-8.45,21.04-8.53,1.61,1.43,3.98,1.31,5.95,1.91,2.08.58,4.03,1.58,5.72,2.93,10.68,9.05,2.73,21.99-6.45,28.55-6.13,4.2-13.3,6.83-20.8,6.56-17.29-.78-13.54-22.02-5.47-31.42ZM161.3,762.71c-6.13,4.2-13.3,6.83-20.8,6.56-6.29-.28-9.8-3.28-11.32-7.43,1.35.6,2.82,1.08,4.46,1.4,2.13.36,4.32.52,6.5.52,2.81,0,5.62-.27,8.34-.79,4.94-1.45,9.98-3.07,14.29-5.95,3.58-2.48,6.99-5.52,9.62-9.06-1.45,5.7-6.09,11.17-11.09,14.75Z"/>
  <path class="cls-1" d="M137.81,747.79c.77.36,1.58.5,2.41.5,1.74,0,3.54-.64,5.08-1.32,3.16-1.48,5.61-3.91,7.51-6.79,3.09-3.64,5.82-9.78.77-13.05-5.37-3.09-13.96,3.88-16.68,8.35-2.09,3.59-3.7,10.01.91,12.31ZM145.17,732.16c1.67-.29,3.29-1.4,5.01-1.4.34,0,.68.04,1.03.15,2.14,1.7-2,6.19-3.29,7.65-2.11,2.66-4.62,5.42-8.23,5.87-5.25-1.52,2.99-10.91,5.48-12.26Z"/>
</svg>